Diabolik-Grasarrondi.ufo
<glyph name="exclam" format="2">
  <advance width="405"/>
  <unicode hex="0021"/>
  <outline>
    <contour>
      <point x="85" y="180" type="line"/>
      <point x="85" y="700" type="line"/>
      <point x="305" y="700" type="line"/>
      <point x="265" y="180" type="line"/>
    </contour>
    <contour>
      <point x="233" y="-10" type="curve" smooth="yes"/>
      <point x="263.335" y="20.3349"/>
      <point x="263.335" y="89.6651"/>
      <point x="233" y="120" type="curve" smooth="yes"/>
      <point x="202.665" y="150.335"/>
      <point x="133.335" y="150.335"/>
      <point x="103" y="120" type="curve" smooth="yes"/>
      <point x="72.6651" y="89.6651"/>
      <point x="72.6651" y="20.3349"/>
      <point x="103" y="-10" type="curve" smooth="yes"/>
      <point x="133.335" y="-40.3349"/>
      <point x="202.665" y="-40.3349"/>
    </contour>
  </outline>
</glyph>
<glyph name="quotedbl" format="2">
  <advance width="577"/>
  <unicode hex="0022"/>
  <outline>
    <contour>
      <point x="269" y="550" type="curve" smooth="yes"/>
      <point x="281.16" y="598.096"/>
      <point x="283.7" y="650.5"/>
      <point x="287" y="700" type="curve"/>
      <point x="77" y="700" type="line"/>
      <point x="77" y="650.5"/>
      <point x="74.0174" y="599.245"/>
      <point x="69" y="550" type="curve" smooth="yes"/>
      <point x="65.0487" y="511.219"/>
      <point x="58.91" y="472.95"/>
      <point x="50" y="435" type="curve"/>
      <point x="220" y="435" type="line"/>
      <point x="238.81" y="472.95"/>
      <point x="258.618" y="508.936"/>
    </contour>
    <contour>
      <point x="519" y="550" type="curve" smooth="yes"/>
      <point x="531.16" y="598.096"/>
      <point x="533.7" y="650.5"/>
      <point x="537" y="700" type="curve"/>
      <point x="327" y="700" type="line"/>
      <point x="327" y="650.5"/>
      <point x="324.017" y="599.245"/>
      <point x="319" y="550" type="curve" smooth="yes"/>
      <point x="315.049" y="511.219"/>
      <point x="308.91" y="472.95"/>
      <point x="300" y="435" type="curve"/>
      <point x="470" y="435" type="line"/>
      <point x="488.81" y="472.95"/>
      <point x="508.618" y="508.936"/>
    </contour>
  </outline>
</glyph>
<glyph name="dollar" format="2">
  <advance width="541"/>
  <unicode hex="0024"/>
  <outline>
    <contour>
      <point x="179" y="850" type="line"/>
      <point x="389" y="850" type="line"/>
      <point x="359" y="-150" type="line"/>
      <point x="179" y="-150" type="line"/>
    </contour>
    <contour>
      <point x="35.7227" y="87.1077" type="curve"/>
      <point x="35.7029" y="325.9" type="line"/>
      <point x="65.7029" y="278.9"/>
      <point x="160" y="170"/>
      <point x="244.547" y="170" type="curve" smooth="yes"/>
      <point x="279" y="170"/>
      <point x="300" y="187"/>
      <point x="300" y="216.298" type="curve" smooth="yes"/>
      <point x="300" y="294"/>
      <point x="38.9984" y="307"/>
      <point x="41.2301" y="514.424" type="curve" smooth="yes"/>
      <point x="42.0374" y="589.456"/>
      <point x="101.927" y="710"/>
      <point x="260.253" y="710" type="curve" smooth="yes"/>
      <point x="358.098" y="710"/>
      <point x="432.068" y="660.698"/>
      <point x="463.568" y="627.495" type="curve"/>
      <point x="463.568" y="416.543" type="line"/>
      <point x="411.568" y="479.543"/>
      <point x="337.182" y="529.981"/>
      <point x="294.17" y="529.998" type="curve" smooth="yes"/>
      <point x="269" y="530.008"/>
      <point x="253" y="517"/>
      <point x="253" y="491.702" type="curve" smooth="yes"/>
      <point x="253" y="414"/>
      <point x="507.279" y="405.004"/>
      <point x="505.533" y="190.577" type="curve" smooth="yes"/>
      <point x="504.718" y="90.5446"/>
      <point x="431.79" y="-10"/>
      <point x="278.463" y="-10" type="curve" smooth="yes"/>
      <point x="150.051" y="-10"/>
      <point x="80.1735" y="43.7906"/>
    </contour>
  </outline>
</glyph>
<glyph name="quotesingle" format="2">
  <advance width="327"/>
  <unicode hex="0027"/>
  <outline>
    <contour>
      <point x="269" y="550" type="curve" smooth="yes"/>
      <point x="281.16" y="598.096"/>
      <point x="283.7" y="650.5"/>
      <point x="287" y="700" type="curve"/>
      <point x="77" y="700" type="line"/>
      <point x="77" y="650.5"/>
      <point x="74.0174" y="599.245"/>
      <point x="69" y="550" type="curve" smooth="yes"/>
      <point x="65.0487" y="511.219"/>
      <point x="58.91" y="472.95"/>
      <point x="50" y="435" type="curve"/>
      <point x="220" y="435" type="line"/>
      <point x="238.81" y="472.95"/>
      <point x="258.618" y="508.936"/>
    </contour>
  </outline>
</glyph>
<glyph name="parenleft" format="2">
  <advance width="499"/>
  <unicode hex="0028"/>
  <outline>
    <contour>
      <point x="80" y="320" type="curve" smooth="yes"/>
      <point x="80" y="162.235"/>
      <point x="137.18" y="-13.9511"/>
      <point x="215" y="-130" type="curve"/>
      <point x="439" y="-130" type="line"/>
      <point x="347.161" y="10.7"/>
      <point x="260" y="160.89"/>
      <point x="260" y="320" type="curve" smooth="yes"/>
      <point x="260" y="479.11"/>
      <point x="337.161" y="609.3"/>
      <point x="428.961" y="750" type="curve"/>
      <point x="205" y="750" type="line"/>
      <point x="127.6" y="633.7"/>
      <point x="80" y="477.765"/>
    </contour>
  </outline>
</glyph>
<glyph name="asterisk" format="2">
  <advance width="601"/>
  <unicode hex="002A"/>
  <outline>
    <contour>
      <point x="30.4822" y="457.359" type="line"/>
      <point x="221.278" y="479.284" type="line"/>
      <point x="38.0158" y="402.6" type="line"/>
      <point x="154.187" y="265.083" type="line"/>
      <point x="258.461" y="426.834" type="line"/>
      <point x="198.114" y="240.287" type="line"/>
      <point x="378.112" y="240.908" type="line"/>
      <point x="326.403" y="424.993" type="line"/>
      <point x="427.118" y="261.594" type="line"/>
      <point x="542.338" y="399.859" type="line"/>
      <point x="371.113" y="473.565" type="line"/>
      <point x="550.95" y="450.973" type="line"/>
      <point x="519.105" y="628.133" type="line"/>
      <point x="354.363" y="541.732" type="line"/>
      <point x="480.972" y="667.372" type="line"/>
      <point x="324.799" y="750.834" type="line"/>
      <point x="294.016" y="570.109" type="line"/>
      <point x="269.806" y="750.119" type="line"/>
      <point x="100.919" y="687.963" type="line"/>
      <point x="230.205" y="539.822" type="line"/>
      <point x="61.1533" y="634.735" type="line"/>
    </contour>
  </outline>
</glyph>
<glyph name="plus" format="2">
  <advance width="511"/>
  <unicode hex="002B"/>
  <outline>
    <contour>
      <point x="335" y="47" type="line"/>
      <point x="155" y="47" type="line"/>
      <point x="155" y="446.934" type="line"/>
      <point x="375" y="446.934" type="line"/>
    </contour>
    <contour>
      <point x="80.5" y="170" type="line"/>
      <point x="80.5" y="350" type="line"/>
      <point x="430.442" y="350" type="line"/>
      <point x="430.442" y="130" type="line"/>
    </contour>
  </outline>
</glyph>
<glyph name="comma" format="2">
  <advance width="297"/>
  <unicode hex="002C"/>
  <outline>
    <contour>
      <point x="238" y="0" type="curve" smooth="yes"/>
      <point x="249.001" y="41.4655"/>
      <point x="246" y="97.1"/>
      <point x="246" y="140" type="curve"/>
      <point x="56" y="140" type="line"/>
      <point x="56" y="97.1"/>
      <point x="54.2367" y="42.4442"/>
      <point x="48" y="0" type="curve" smooth="yes"/>
      <point x="42.2189" y="-39.3436"/>
      <point x="31.88" y="-77.05"/>
      <point x="20" y="-115" type="curve"/>
      <point x="181" y="-115" type="line"/>
      <point x="202.45" y="-77.05"/>
      <point x="226.821" y="-42.1348"/>
    </contour>
  </outline>
</glyph>
<glyph name="period" format="2">
  <advance width="240"/>
  <unicode hex="002E"/>
  <outline>
    <contour>
      <point x="195" y="0" type="curve" smooth="yes"/>
      <point x="227.668" y="32.6683"/>
      <point x="227.668" y="107.332"/>
      <point x="195" y="140" type="curve" smooth="yes"/>
      <point x="162.332" y="172.668"/>
      <point x="87.6683" y="172.668"/>
      <point x="55" y="140" type="curve" smooth="yes"/>
      <point x="22.3317" y="107.332"/>
      <point x="22.3317" y="32.6683"/>
      <point x="55" y="0" type="curve" smooth="yes"/>
      <point x="87.6683" y="-32.6683"/>
      <point x="162.332" y="-32.6683"/>
    </contour>
  </outline>
</glyph>
<glyph name="zero" format="2">
  <advance width="560"/>
  <unicode hex="0030"/>
  <outline>
    <contour>
      <point x="279.529" y="710.031" type="curve"/>
      <point x="279.529" y="710.031" type="line"/>
      <point x="456" y="710.053"/>
      <point x="522.059" y="507.442"/>
      <point x="522.059" y="351.199" type="curve" smooth="yes"/>
      <point x="522.059" y="206.716"/>
      <point x="463.34" y="-10"/>
      <point x="279.529" y="-10" type="curve"/>
      <point x="279.529" y="-10" type="line"/>
      <point x="97" y="-10.0106"/>
      <point x="37" y="193.589"/>
      <point x="37" y="349.832" type="curve" smooth="yes"/>
      <point x="37" y="495.134"/>
      <point x="95.7189" y="710.031"/>
    </contour>
    <contour>
      <point x="276.934" y="512.002" type="line"/>
      <point x="235.53" y="512.002"/>
      <point x="210.84" y="428.545"/>
      <point x="210.84" y="359.281" type="curve" smooth="yes"/>
      <point x="210.84" y="272.423"/>
      <point x="227.796" y="187.514"/>
      <point x="281.544" y="185.469" type="curve"/>
      <point x="281.544" y="185.469" type="line"/>
      <point x="322.948" y="185.469"/>
      <point x="350.56" y="268.977"/>
      <point x="350.638" y="338.203" type="curve" smooth="yes"/>
      <point x="350.735" y="424.766"/>
      <point x="330.396" y="509.957"/>
      <point x="276.934" y="512.002" type="curve"/>
    </contour>
  </outline>
</glyph>
<glyph name="one" format="2">
  <advance width="305"/>
  <unicode hex="0031"/>
  <outline>
    <contour>
      <point x="0" y="700" type="line"/>
      <point x="239.85" y="700" type="line" smooth="yes"/>
      <point x="260" y="700"/>
      <point x="270" y="690"/>
      <point x="270" y="670" type="curve" smooth="yes"/>
      <point x="270" y="0" type="line"/>
      <point x="50" y="0" type="line"/>
      <point x="90" y="520" type="line"/>
      <point x="66.3063" y="509.469" type="line"/>
      <point x="0" y="480" type="line"/>
    </contour>
  </outline>
</glyph>
<glyph name="two" format="2">
  <advance width="400"/>
  <unicode hex="0032"/>
  <outline>
    <contour>
      <point x="384.107" y="0" type="line"/>
      <point x="127.838" y="0" type="line" smooth="yes"/>
      <point x="24.032" y="0"/>
      <point x="18.1065" y="78.4785"/>
      <point x="41.002" y="150" type="curve" smooth="yes"/>
      <point x="64.8284" y="224.43"/>
      <point x="148.572" y="431.755"/>
      <point x="149.943" y="479" type="curve" smooth="yes"/>
      <point x="151.189" y="521.987"/>
      <point x="130.383" y="534.939"/>
      <point x="30" y="470.939" type="curve"/>
      <point x="30" y="690.999" type="line"/>
      <point x="155.958" y="720.999"/>
      <point x="332.975" y="722.999"/>
      <point x="333.021" y="582" type="curve" smooth="yes"/>
      <point x="333.049" y="494.744"/>
      <point x="294.212" y="397.206"/>
      <point x="232.52" y="212.38" type="curve" smooth="yes"/>
      <point x="226.056" y="193.013"/>
      <point x="230.108" y="181.634"/>
      <point x="254.303" y="187.599" type="curve" smooth="yes"/>
      <point x="384.107" y="219.599" type="line"/>
    </contour>
  </outline>
</glyph>
<glyph name="three" format="2">
  <advance width="438"/>
  <unicode hex="0033"/>
  <outline>
    <contour>
      <point x="70" y="447.05" type="line"/>
      <point x="135.078" y="468"/>
      <point x="180.785" y="493.252"/>
      <point x="180.754" y="507.998" type="curve" smooth="yes"/>
      <point x="180.713" y="527.026"/>
      <point x="125.943" y="513.79"/>
      <point x="50" y="499.95" type="curve"/>
      <point x="50" y="700" type="line"/>
      <point x="245.95" y="703"/>
      <point x="369.946" y="685"/>
      <point x="369.994" y="557" type="curve" smooth="yes"/>
      <point x="370.024" y="477.604"/>
      <point x="284.787" y="412.104"/>
      <point x="268" y="399.069" type="curve"/>
      <point x="355.602" y="358.646"/>
      <point x="400.007" y="306.696"/>
      <point x="400.007" y="215.999" type="curve" smooth="yes"/>
      <point x="400.007" y="77.5985"/>
      <point x="275" y="-5"/>
      <point x="35" y="-5" type="curve"/>
      <point x="35" y="215.05" type="line"/>
      <point x="155.32" y="215.192"/>
      <point x="209.943" y="224.049"/>
      <point x="209.943" y="254.999" type="curve" smooth="yes"/>
      <point x="209.943" y="277.399"/>
      <point x="168.569" y="296.773"/>
      <point x="69.6466" y="307.069" type="curve"/>
    </contour>
  </outline>
</glyph>
<glyph name="four" format="2">
  <advance width="497"/>
  <unicode hex="0034"/>
  <outline>
    <contour>
      <point x="284" y="700" type="line"/>
      <point x="54.8235" y="364.15" type="line" smooth="yes"/>
      <point x="-19.6087" y="255.073"/>
      <point x="11.7342" y="151"/>
      <point x="141.234" y="151" type="curve" smooth="yes"/>
      <point x="248.983" y="151" type="line"/>
      <point x="234" y="0" type="line"/>
      <point x="434" y="0" type="line"/>
      <point x="433.699" y="150.708" type="line"/>
      <point x="485.93" y="150.626" type="line"/>
      <point x="486.22" y="351.056" type="line"/>
      <point x="433.58" y="346.04" type="line"/>
      <point x="434" y="700" type="line"/>
    </contour>
    <contour>
      <point x="208.081" y="317" type="line" smooth="yes"/>
      <point x="196.557" y="314.931"/>
      <point x="196.128" y="323.157"/>
      <point x="202.864" y="333.039" type="curve" smooth="yes"/>
      <point x="267.891" y="428.439" type="line"/>
      <point x="283" y="448" type="line"/>
      <point x="269.347" y="328" type="line"/>
    </contour>
  </outline>
</glyph>
<glyph name="five" format="2">
  <advance width="484"/>
  <unicode hex="0035"/>
  <outline>
    <contour>
      <point x="406.107" y="700.999" type="line"/>
      <point x="406.107" y="481.4" type="line"/>
      <point x="217" y="526.4" type="line"/>
      <point x="216.9" y="503.098" type="line"/>
      <point x="216" y="449.069" type="line"/>
      <point x="364.486" y="424.069"/>
      <point x="446.007" y="364.971"/>
      <point x="446.007" y="248.999" type="curve" smooth="yes"/>
      <point x="446.007" y="66.5968"/>
      <point x="250.99" y="-5"/>
      <point x="41" y="-5" type="curve"/>
      <point x="41" y="215.06" type="line"/>
      <point x="141.266" y="205.06"/>
      <point x="255.943" y="199.054"/>
      <point x="255.943" y="253.999" type="curve" smooth="yes"/>
      <point x="255.943" y="301.4"/>
      <point x="164.63" y="309.069"/>
      <point x="35.6466" y="319.069" type="curve"/>
      <point x="35.9278" y="631.117" type="line" smooth="yes"/>
      <point x="35.978" y="686.866"/>
      <point x="60.2351" y="700.999"/>
      <point x="106.002" y="700.999" type="curve" smooth="yes"/>
    </contour>
  </outline>
</glyph>
<glyph name="seven" format="2">
  <advance width="381"/>
  <unicode hex="0037"/>
  <outline>
    <contour>
      <point x="0" y="700" type="line"/>
      <point x="320.286" y="700" type="line" smooth="yes"/>
      <point x="341.272" y="700"/>
      <point x="348.272" y="690"/>
      <point x="345" y="670" type="curve" smooth="yes"/>
      <point x="240" y="0" type="line"/>
      <point x="19" y="0" type="line"/>
      <point x="163" y="505" type="line"/>
      <point x="165.135" y="517.136"/>
      <point x="160.237" y="522.012"/>
      <point x="150.247" y="520" type="curve"/>
      <point x="0" y="480" type="line"/>
    </contour>
  </outline>
</glyph>
<glyph name="eight" format="2">
  <advance width="552"/>
  <unicode hex="0038"/>
  <outline>
    <contour>
      <point x="47.6928" y="529" type="curve" smooth="yes"/>
      <point x="47.6928" y="633.666"/>
      <point x="148.33" y="714.278"/>
      <point x="274" y="713.981" type="curve" smooth="yes"/>
      <point x="403.45" y="713.675"/>
      <point x="504" y="633.75"/>
      <point x="504" y="529" type="curve" smooth="yes"/>
      <point x="504" y="459.734"/>
      <point x="471.201" y="425.174"/>
      <point x="419.419" y="373.787" type="curve"/>
      <point x="466.868" y="344.487"/>
      <point x="526.243" y="278.8"/>
      <point x="526.243" y="188.787" type="curve" smooth="yes"/>
      <point x="526.243" y="63.9478"/>
      <point x="428.643" y="-13"/>
      <point x="279" y="-13" type="curve" smooth="yes"/>
      <point x="129.05" y="-13"/>
      <point x="25.6604" y="63.6658"/>
      <point x="26" y="188.787" type="curve" smooth="yes"/>
      <point x="26.2569" y="283.436"/>
      <point x="92.8251" y="337.487"/>
      <point x="132.366" y="373.787" type="curve"/>
      <point x="90.3337" y="405.031"/>
      <point x="47.6928" y="455.734"/>
    </contour>
    <contour>
      <point x="237.681" y="518.011" type="curve" smooth="yes"/>
      <point x="237.681" y="494.734"/>
      <point x="252.264" y="466.083"/>
      <point x="274.559" y="435.088" type="curve"/>
      <point x="299.429" y="466.083"/>
      <point x="314.012" y="494.734"/>
      <point x="314.012" y="518.011" type="curve" smooth="yes"/>
      <point x="314.012" y="546.855"/>
      <point x="299.432" y="574"/>
      <point x="275" y="574" type="curve" smooth="yes"/>
      <point x="251.26" y="574"/>
      <point x="237.681" y="546.855"/>
    </contour>
    <contour>
      <point x="235.988" y="190.776" type="curve" smooth="yes"/>
      <point x="235.988" y="156.764"/>
      <point x="251.489" y="128"/>
      <point x="276" y="128" type="curve" smooth="yes"/>
      <point x="302.204" y="128"/>
      <point x="315.704" y="154.764"/>
      <point x="315.704" y="190.776" type="curve" smooth="yes"/>
      <point x="315.704" y="239.054"/>
      <point x="302.549" y="275.142"/>
      <point x="276.557" y="311.627" type="curve"/>
      <point x="248.517" y="277.142"/>
      <point x="235.988" y="239.053"/>
    </contour>
  </outline>
</glyph>
<glyph name="nine" format="2">
  <advance width="529"/>
  <unicode hex="0039"/>
  <outline>
    <contour>
      <point x="493.007" y="360" type="line"/>
      <point x="424.31" y="251.313"/>
      <point x="331.818" y="197"/>
      <point x="256.214" y="197" type="curve" smooth="yes"/>
      <point x="105.952" y="197"/>
      <point x="37.0069" y="302.641"/>
      <point x="37.0069" y="442" type="curve" smooth="yes"/>
      <point x="37.0069" y="561.257"/>
      <point x="85.9838" y="705"/>
      <point x="266.007" y="705" type="curve" smooth="yes"/>
      <point x="503" y="705"/>
      <point x="503.007" y="468"/>
      <point x="493.007" y="360" type="curve"/>
      <point x="363.007" y="-3" type="line"/>
      <point x="141.804" y="-3" type="line"/>
      <point x="303.007" y="365" type="line"/>
      <point x="298.007" y="460"/>
      <point x="281.007" y="558"/>
      <point x="255.007" y="558" type="curve" smooth="yes"/>
      <point x="238.007" y="558"/>
      <point x="233.474" y="529.141"/>
      <point x="237.057" y="474" type="curve" smooth="yes"/>
      <point x="243.057" y="381.651"/>
      <point x="260.719" y="336.659"/>
      <point x="278.218" y="336.773" type="curve" smooth="yes"/>
      <point x="287.958" y="336.837"/>
      <point x="292.975" y="344.06"/>
      <point x="303.007" y="365" type="curve"/>
    </contour>
  </outline>
</glyph>
<glyph name="colon" format="2">
  <advance width="326"/>
  <unicode hex="003A"/>
  <outline>
    <contour>
      <point x="228" y="65" type="curve" smooth="yes"/>
      <point x="258.335" y="95.3349"/>
      <point x="258.335" y="164.665"/>
      <point x="228" y="195" type="curve" smooth="yes"/>
      <point x="197.665" y="225.335"/>
      <point x="128.335" y="225.335"/>
      <point x="98" y="195" type="curve" smooth="yes"/>
      <point x="67.6651" y="164.665"/>
      <point x="67.6651" y="95.3349"/>
      <point x="98" y="65" type="curve" smooth="yes"/>
      <point x="128.335" y="34.6651"/>
      <point x="197.665" y="34.6651"/>
    </contour>
    <contour>
      <point x="228" y="271" type="curve" smooth="yes"/>
      <point x="258.335" y="301.335"/>
      <point x="258.335" y="370.665"/>
      <point x="228" y="401" type="curve" smooth="yes"/>
      <point x="197.665" y="431.335"/>
      <point x="128.335" y="431.335"/>
      <point x="98" y="401" type="curve" smooth="yes"/>
      <point x="67.6651" y="370.665"/>
      <point x="67.6651" y="301.335"/>
      <point x="98" y="271" type="curve" smooth="yes"/>
      <point x="128.335" y="240.665"/>
      <point x="197.665" y="240.665"/>
    </contour>
  </outline>
</glyph>
<glyph name="semicolon" format="2">
  <advance width="287"/>
  <unicode hex="003B"/>
  <outline>
    <contour>
      <point x="228" y="-60" type="curve" smooth="yes"/>
      <point x="239.001" y="-18.5345"/>
      <point x="236" y="27.1"/>
      <point x="236" y="70" type="curve"/>
      <point x="56" y="70" type="line"/>
      <point x="56" y="27.1"/>
      <point x="54.2367" y="-17.5558"/>
      <point x="48" y="-60" type="curve" smooth="yes"/>
      <point x="42.2189" y="-99.3436"/>
      <point x="31.88" y="-137.05"/>
      <point x="20" y="-175" type="curve"/>
      <point x="171" y="-175" type="line"/>
      <point x="192.45" y="-137.05"/>
      <point x="216.821" y="-102.135"/>
    </contour>
    <contour>
      <point x="211" y="135" type="curve" smooth="yes"/>
      <point x="241.335" y="165.335"/>
      <point x="241.335" y="234.665"/>
      <point x="211" y="265" type="curve" smooth="yes"/>
      <point x="180.665" y="295.335"/>
      <point x="111.335" y="295.335"/>
      <point x="81" y="265" type="curve" smooth="yes"/>
      <point x="50.6651" y="234.665"/>
      <point x="50.6651" y="165.335"/>
      <point x="81" y="135" type="curve" smooth="yes"/>
      <point x="111.335" y="104.665"/>
      <point x="180.665" y="104.665"/>
    </contour>
  </outline>
</glyph>
<glyph name="less" format="2">
  <advance width="467"/>
  <unicode hex="003C"/>
  <outline>
    <contour>
      <point x="405" y="520" type="line"/>
      <point x="40" y="275.452" type="line"/>
      <point x="406" y="30" type="line"/>
      <point x="406.016" y="243.803" type="line"/>
      <point x="250" y="275.453" type="line"/>
      <point x="405" y="305.981" type="line"/>
    </contour>
  </outline>
</glyph>
<glyph name="greater" format="2">
  <advance width="467"/>
  <unicode hex="003E"/>
  <outline>
    <contour>
      <point x="61.0157" y="520" type="line"/>
      <point x="61.0157" y="305.981" type="line"/>
      <point x="216.016" y="275.453" type="line"/>
      <point x="60" y="243.803" type="line"/>
      <point x="60.0157" y="30" type="line"/>
      <point x="426.016" y="275.452" type="line"/>
    </contour>
  </outline>
</glyph>
<glyph name="question" format="2">
  <advance width="481"/>
  <unicode hex="003F"/>
  <outline>
    <contour>
      <point x="80.0104" y="180" type="line"/>
      <point x="80.0104" y="337.599" type="line"/>
      <point x="137.81" y="404.661"/>
      <point x="210.262" y="460.44"/>
      <point x="210.262" y="513.852" type="curve" smooth="yes"/>
      <point x="210.262" y="565.683"/>
      <point x="109.593" y="511.131"/>
      <point x="60.0104" y="479.94" type="curve"/>
      <point x="60.0104" y="700" type="line"/>
      <point x="279.968" y="700"/>
      <point x="399.966" y="691"/>
      <point x="400.018" y="559" type="curve" smooth="yes"/>
      <point x="400.053" y="469.744"/>
      <point x="305.81" y="378.662"/>
      <point x="260.01" y="311.599" type="curve"/>
      <point x="260.01" y="180.001" type="line"/>
    </contour>
    <contour>
      <point x="234" y="-10" type="curve" smooth="yes"/>
      <point x="264.335" y="20.3349"/>
      <point x="264.335" y="89.6651"/>
      <point x="234" y="120" type="curve" smooth="yes"/>
      <point x="203.665" y="150.335"/>
      <point x="134.335" y="150.335"/>
      <point x="104" y="120" type="curve" smooth="yes"/>
      <point x="73.6651" y="89.6651"/>
      <point x="73.6651" y="20.3349"/>
      <point x="104" y="-10" type="curve" smooth="yes"/>
      <point x="134.335" y="-40.3349"/>
      <point x="203.665" y="-40.3349"/>
    </contour>
  </outline>
</glyph>
<glyph name="A" format="2">
  <advance width="576"/>
  <unicode hex="0041"/>
  <outline>
    <contour>
      <point x="290.533" y="710" type="line" smooth="yes"/>
      <point x="8.5162" y="710"/>
      <point x="29.9663" y="454.048"/>
      <point x="20" y="0" type="curve"/>
      <point x="240" y="0" type="line"/>
      <point x="218" y="156" type="line"/>
      <point x="356" y="156" type="line"/>
      <point x="336" y="0" type="line"/>
      <point x="556" y="0" type="line"/>
      <point x="545.507" y="464.048"/>
      <point x="556.067" y="710"/>
      <point x="291.546" y="710" type="curve" smooth="yes"/>
    </contour>
    <contour>
      <point x="206" y="326" type="line"/>
      <point x="198" y="381.703"/>
      <point x="197" y="540"/>
      <point x="288" y="540" type="curve" smooth="yes"/>
      <point x="380" y="540"/>
      <point x="380" y="389.231"/>
      <point x="370" y="326" type="curve"/>
    </contour>
  </outline>
</glyph>
<glyph name="B" format="2">
  <advance width="630"/>
  <unicode hex="0042"/>
  <outline>
    <contour>
      <point x="35" y="700" type="line"/>
      <point x="332" y="700" type="line" smooth="yes"/>
      <point x="461" y="700"/>
      <point x="528" y="625"/>
      <point x="528" y="540" type="curve" smooth="yes"/>
      <point x="528" y="485"/>
      <point x="506" y="431"/>
      <point x="449" y="397" type="curve"/>
      <point x="507" y="387"/>
      <point x="598.034" y="325"/>
      <point x="597.486" y="213" type="curve" smooth="yes"/>
      <point x="596.786" y="70"/>
      <point x="499" y="-0.0257263"/>
      <point x="368" y="-0.0184263" type="curve" smooth="yes"/>
      <point x="35" y="0" type="line"/>
    </contour>
    <contour>
      <point x="232" y="435" type="line"/>
      <point x="247" y="435" type="line"/>
      <point x="300" y="436"/>
      <point x="340.923" y="453.975"/>
      <point x="340.594" y="510.003" type="curve" smooth="yes"/>
      <point x="340.342" y="552.838"/>
      <point x="312.618" y="578"/>
      <point x="264" y="578" type="curve" smooth="yes"/>
      <point x="243" y="578" type="line"/>
    </contour>
    <contour>
      <point x="214.961" y="140.356" type="line"/>
      <point x="298" y="140.356" type="line" smooth="yes"/>
      <point x="345" y="140.356"/>
      <point x="395.735" y="161"/>
      <point x="395.98" y="221" type="curve" smooth="yes"/>
      <point x="396.171" y="268"/>
      <point x="360" y="304.955"/>
      <point x="285" y="304.926" type="curve" smooth="yes"/>
      <point x="228" y="304.905" type="line"/>
    </contour>
  </outline>
</glyph>
<glyph name="C" format="2">
  <advance width="525"/>
  <unicode hex="0043"/>
  <outline>
    <contour>
      <point x="504.168" y="79.6592" type="line"/>
      <point x="458.843" y="35.0864"/>
      <point x="394.592" y="-9.99509"/>
      <point x="296.844" y="-10" type="curve" smooth="yes"/>
      <point x="69.9353" y="-10.0114"/>
      <point x="37.6594" y="233.283"/>
      <point x="37.2905" y="349.832" type="curve" smooth="yes"/>
      <point x="36.9576" y="455.041"/>
      <point x="70.9615" y="710.126"/>
      <point x="300.653" y="710.132" type="curve" smooth="yes"/>
      <point x="398.47" y="710.135"/>
      <point x="460.481" y="664.771"/>
      <point x="490.287" y="620.465" type="curve"/>
      <point x="410.067" y="453" type="line"/>
      <point x="396.316" y="478"/>
      <point x="370.601" y="521.529"/>
      <point x="331.365" y="521.529" type="curve" smooth="yes"/>
      <point x="265.158" y="521.529"/>
      <point x="230.937" y="455.668"/>
      <point x="230.937" y="348.126" type="curve" smooth="yes"/>
      <point x="230.937" y="263"/>
      <point x="256.235" y="176.352"/>
      <point x="335.836" y="175.942" type="curve" smooth="yes"/>
      <point x="379.016" y="175.72"/>
      <point x="405.273" y="185.437"/>
      <point x="453.623" y="224.442" type="curve"/>
    </contour>
  </outline>
</glyph>
<glyph name="D" format="2">
  <advance width="634"/>
  <unicode hex="0044"/>
  <outline>
    <contour>
      <point x="35" y="700" type="line"/>
      <point x="244.809" y="700.122" type="line" smooth="yes"/>
      <point x="556.865" y="700.302"/>
      <point x="596.328" y="455.066"/>
      <point x="596.016" y="351.312" type="curve" smooth="yes"/>
      <point x="595.665" y="234.763"/>
      <point x="554.769" y="0"/>
      <point x="244.769" y="0" type="curve" smooth="yes"/>
      <point x="35" y="0" type="line"/>
    </contour>
    <contour>
      <point x="216.92" y="179.356" type="line"/>
      <point x="239.471" y="179.356" type="line"/>
      <point x="359.021" y="183.772"/>
      <point x="401.023" y="244.763"/>
      <point x="401.023" y="351.364" type="curve" smooth="yes"/>
      <point x="401.023" y="455.066"/>
      <point x="336.067" y="517.929"/>
      <point x="267" y="517.929" type="curve"/>
      <point x="249" y="517.905" type="line"/>
    </contour>
  </outline>
</glyph>
<glyph name="E" format="2">
  <advance width="447"/>
  <unicode hex="0045"/>
  <outline>
    <contour>
      <point x="105" y="700" type="curve" smooth="yes"/>
      <point x="405" y="700" type="line"/>
      <point x="405" y="480" type="line"/>
      <point x="273.057" y="522.925" type="line" smooth="yes"/>
      <point x="233.117" y="535.919"/>
      <point x="219.242" y="519.037"/>
      <point x="220.218" y="472.166" type="curve" smooth="yes"/>
      <point x="220.845" y="442" type="line"/>
      <point x="345" y="442" type="line"/>
      <point x="345" y="232" type="line"/>
      <point x="277.057" y="263.925" type="line"/>
      <point x="226.406" y="286.259"/>
      <point x="220.517" y="259.583"/>
      <point x="220.038" y="233.256" type="curve" smooth="yes"/>
      <point x="219.548" y="206.298" type="line" smooth="yes"/>
      <point x="219.064" y="179.726"/>
      <point x="232.934" y="163.658"/>
      <point x="273.057" y="176.075" type="curve" smooth="yes"/>
      <point x="415" y="220" type="line"/>
      <point x="415" y="0" type="line"/>
      <point x="105" y="0" type="line" smooth="yes"/>
      <point x="45.0083" y="0"/>
      <point x="35" y="40.4353"/>
      <point x="35" y="78" type="curve" smooth="yes"/>
      <point x="35" y="622" type="line"/>
      <point x="35.224" y="674.373"/>
      <point x="58.2225" y="700"/>
    </contour>
  </outline>
</glyph>
<glyph name="F" format="2">
  <advance width="425"/>
  <unicode hex="0046"/>
  <outline>
    <contour>
      <point x="105" y="700" type="curve" smooth="yes"/>
      <point x="405" y="700" type="line"/>
      <point x="405" y="480" type="line"/>
      <point x="273.057" y="530.925" type="line" smooth="yes"/>
      <point x="233.874" y="546.049"/>
      <point x="213.218" y="527.047"/>
      <point x="213.218" y="480.166" type="curve"/>
      <point x="216.845" y="442" type="line"/>
      <point x="345" y="442" type="line"/>
      <point x="345" y="232" type="line"/>
      <point x="276.559" y="270.524" type="line"/>
      <point x="228.058" y="296.579"/>
      <point x="216.829" y="267.588"/>
      <point x="216.829" y="221.258" type="curve" smooth="yes"/>
      <point x="216.829" y="168"/>
      <point x="218.994" y="126.707"/>
      <point x="255" y="0" type="curve"/>
      <point x="35" y="0" type="line"/>
      <point x="35" y="211.526"/>
      <point x="35" y="427.484"/>
      <point x="35" y="622" type="curve" smooth="yes"/>
      <point x="35" y="659.565"/>
      <point x="45.0083" y="700"/>
    </contour>
  </outline>
</glyph>
<glyph name="G" format="2">
  <advance width="643"/>
  <unicode hex="0047"/>
  <outline>
    <contour>
      <point x="595.168" y="89.6592" type="line"/>
      <point x="529.843" y="35.0864"/>
      <point x="449.055" y="0.0756721"/>
      <point x="345.265" y="0.0519721" type="curve" smooth="yes"/>
      <point x="139.204" y="0.00497215"/>
      <point x="37.9365" y="181.245"/>
      <point x="38" y="371.245" type="curve" smooth="yes"/>
      <point x="38.0584" y="546.133"/>
      <point x="127.15" y="720.132"/>
      <point x="349.206" y="720.132" type="curve" smooth="yes"/>
      <point x="432.401" y="720.132"/>
      <point x="521.481" y="674.771"/>
      <point x="571.287" y="630.465" type="curve"/>
      <point x="490.803" y="463" type="line"/>
      <point x="462.736" y="488"/>
      <point x="396.736" y="531.529"/>
      <point x="340.736" y="531.529" type="curve" smooth="yes"/>
      <point x="265.82" y="531.529"/>
      <point x="231.673" y="476.106"/>
      <point x="231.673" y="398.564" type="curve" smooth="yes"/>
      <point x="231.673" y="273"/>
      <point x="286.775" y="164.616"/>
      <point x="356.572" y="159.942" type="curve" smooth="yes"/>
      <point x="382.889" y="158.18"/>
      <point x="416" y="169"/>
      <point x="434" y="208.442" type="curve"/>
      <point x="434" y="223.69" type="line" smooth="yes"/>
      <point x="434" y="250.101"/>
      <point x="417" y="257"/>
      <point x="375" y="257" type="curve" smooth="yes"/>
      <point x="318.695" y="257" type="line"/>
      <point x="318.695" y="432.11" type="line"/>
      <point x="497" y="432.006" type="line" smooth="yes"/>
      <point x="606.992" y="431.942"/>
      <point x="609.889" y="331.458"/>
      <point x="607" y="284" type="curve" smooth="yes"/>
    </contour>
  </outline>
</glyph>
<glyph name="H" format="2">
  <advance width="596"/>
  <unicode hex="0048"/>
  <outline>
    <contour>
      <point x="35" y="700" type="line"/>
      <point x="255" y="700" type="line"/>
      <point x="244.583" y="550" type="line" smooth="yes"/>
      <point x="241.185" y="501.069"/>
      <point x="243" y="462"/>
      <point x="287.342" y="462" type="curve" smooth="yes"/>
      <point x="297.427" y="462" type="line" smooth="yes"/>
      <point x="332" y="462"/>
      <point x="341" y="491"/>
      <point x="341" y="550" type="curve" smooth="yes"/>
      <point x="341" y="700" type="line"/>
      <point x="561" y="700" type="line"/>
      <point x="521" y="0" type="line"/>
      <point x="341" y="0" type="line"/>
      <point x="341" y="189.057" type="line" smooth="yes"/>
      <point x="341" y="247"/>
      <point x="335.828" y="265.276"/>
      <point x="295.023" y="273.071" type="curve" smooth="yes"/>
      <point x="284.108" y="275.156" type="line"/>
      <point x="253.287" y="279.308"/>
      <point x="235.759" y="266.042"/>
      <point x="232.371" y="222.623" type="curve" smooth="yes"/>
      <point x="215" y="0" type="line"/>
      <point x="35" y="0" type="line"/>
    </contour>
  </outline>
</glyph>
<glyph name="I" format="2">
  <advance width="290"/>
  <unicode hex="0049"/>
  <outline>
    <contour>
      <point x="35" y="700" type="line"/>
      <point x="255" y="700" type="line"/>
      <point x="215" y="0" type="line"/>
      <point x="35" y="0" type="line"/>
    </contour>
  </outline>
</glyph>
<glyph name="J" format="2">
  <advance width="401"/>
  <unicode hex="004A"/>
  <outline>
    <contour>
      <point x="146" y="700" type="line"/>
      <point x="366" y="700" type="line"/>
      <point x="366" y="216" type="line"/>
      <point x="365.817" y="28"/>
      <point x="273" y="-10"/>
      <point x="196.769" y="-10" type="curve" smooth="yes"/>
      <point x="114" y="-10"/>
      <point x="66" y="27.6044"/>
      <point x="20.8474" y="71.4728" type="curve"/>
      <point x="20.8474" y="291" type="line"/>
      <point x="70.1153" y="224"/>
      <point x="103.865" y="170"/>
      <point x="140.769" y="170" type="curve" smooth="yes"/>
      <point x="183.776" y="170"/>
      <point x="194.973" y="222.518"/>
      <point x="186" y="310" type="curve" smooth="yes"/>
    </contour>
  </outline>
</glyph>
<glyph name="K" format="2">
  <advance width="607"/>
  <unicode hex="004B"/>
  <outline>
    <contour>
      <point x="205" y="0" type="line"/>
      <point x="219.166" y="257.04" type="line"/>
      <point x="221.166" y="257.04" type="line" smooth="yes"/>
      <point x="263.166" y="257.04"/>
      <point x="320" y="117.22"/>
      <point x="360" y="-0.079483" type="curve"/>
      <point x="586.293" y="-0.079483" type="line"/>
      <point x="512" y="137"/>
      <point x="444.258" y="289.717"/>
      <point x="326" y="342" type="curve"/>
      <point x="469.004" y="370.263"/>
      <point x="547" y="549.905"/>
      <point x="568" y="700" type="curve"/>
      <point x="347" y="700" type="line"/>
      <point x="330" y="571.43"/>
      <point x="301.452" y="437.383"/>
      <point x="223.039" y="439.05" type="curve"/>
      <point x="245" y="700" type="line"/>
      <point x="35" y="700" type="line"/>
      <point x="35" y="0" type="line"/>
    </contour>
  </outline>
</glyph>
<glyph name="L" format="2">
  <advance width="435"/>
  <unicode hex="004C"/>
  <outline>
    <contour>
      <point x="35" y="700" type="line"/>
      <point x="255" y="700" type="line"/>
      <point x="199.806" y="220" type="line" smooth="yes"/>
      <point x="194.095" y="170.326"/>
      <point x="216.06" y="156.259"/>
      <point x="256.057" y="169.075" type="curve" smooth="yes"/>
      <point x="415" y="220" type="line"/>
      <point x="415" y="0" type="line"/>
      <point x="105" y="0" type="line" smooth="yes"/>
      <point x="44.9513" y="0"/>
      <point x="35" y="40.4353"/>
      <point x="35" y="78" type="curve" smooth="yes"/>
    </contour>
  </outline>
</glyph>
<glyph name="M" format="2">
  <advance width="784"/>
  <unicode hex="004D"/>
  <outline>
    <contour>
      <point x="462" y="200" type="curve"/>
      <point x="322" y="200" type="line"/>
      <point x="246.752" y="389.606"/>
      <point x="238.607" y="430.831"/>
      <point x="224" y="431" type="curve" smooth="yes"/>
      <point x="207" y="431.197"/>
      <point x="227" y="308.13"/>
      <point x="256" y="0" type="curve"/>
      <point x="36" y="0" type="line"/>
      <point x="34.9438" y="470.827"/>
      <point x="45.8624" y="700"/>
      <point x="176" y="700" type="curve"/>
      <point x="176" y="700" type="line"/>
      <point x="239.398" y="700"/>
      <point x="296.311" y="667.438"/>
      <point x="392" y="405" type="curve"/>
      <point x="487.689" y="667.438"/>
      <point x="545.448" y="700"/>
      <point x="608" y="700" type="curve"/>
      <point x="608" y="700" type="line"/>
      <point x="738" y="700"/>
      <point x="749" y="471"/>
      <point x="748" y="0" type="curve"/>
      <point x="528" y="0" type="line"/>
      <point x="557" y="308.13"/>
      <point x="577" y="431"/>
      <point x="560" y="431" type="curve" smooth="yes"/>
      <point x="545" y="431"/>
      <point x="537.248" y="389.606"/>
    </contour>
  </outline>
</glyph>
<glyph name="N" format="2">
  <advance width="660"/>
  <unicode hex="004E"/>
  <outline>
    <contour>
      <point x="405" y="700" type="curve"/>
      <point x="625" y="700" type="line"/>
      <point x="615" y="179"/>
      <point x="595" y="-5"/>
      <point x="465" y="-5" type="curve"/>
      <point x="465" y="-5" type="line"/>
      <point x="386" y="-5"/>
      <point x="343.366" y="82.6848"/>
      <point x="285.522" y="230.994" type="curve" smooth="yes"/>
      <point x="236.046" y="357.85"/>
      <point x="192.916" y="490"/>
      <point x="180" y="490" type="curve" smooth="yes"/>
      <point x="167" y="490"/>
      <point x="182" y="408.13"/>
      <point x="236" y="0" type="curve"/>
      <point x="36" y="0" type="line"/>
      <point x="35" y="521"/>
      <point x="36" y="705"/>
      <point x="166" y="705" type="curve"/>
      <point x="166" y="705" type="line"/>
      <point x="258" y="705"/>
      <point x="300.02" y="613.338"/>
      <point x="352.618" y="473.73" type="curve" smooth="yes"/>
      <point x="413.943" y="310.957"/>
      <point x="442" y="211"/>
      <point x="455" y="211" type="curve" smooth="yes"/>
      <point x="472" y="211"/>
      <point x="455" y="291.87"/>
    </contour>
  </outline>
</glyph>
<glyph name="O" format="2">
  <advance width="610"/>
  <unicode hex="004F"/>
  <outline>
    <contour>
      <point x="304.529" y="710.031" type="curve"/>
      <point x="304.529" y="710.031" type="line"/>
      <point x="526" y="710.053"/>
      <point x="572.059" y="467.442"/>
      <point x="572.059" y="351.199" type="curve" smooth="yes"/>
      <point x="572.059" y="246.716"/>
      <point x="533.34" y="-10"/>
      <point x="304.529" y="-10" type="curve"/>
      <point x="304.529" y="-10" type="line"/>
      <point x="77" y="-10.0106"/>
      <point x="37" y="233.589"/>
      <point x="37" y="349.832" type="curve" smooth="yes"/>
      <point x="37" y="455.134"/>
      <point x="75.7189" y="710.031"/>
    </contour>
    <contour>
      <point x="289.045" y="530.168" type="line"/>
      <point x="245.819" y="530.168"/>
      <point x="232.622" y="469.612"/>
      <point x="232.622" y="411.095" type="curve" smooth="yes"/>
      <point x="232.622" y="311.213"/>
      <point x="251.588" y="170.891"/>
      <point x="316.483" y="167.302" type="curve"/>
      <point x="316.483" y="167.302" type="line"/>
      <point x="357.609" y="167.302"/>
      <point x="371.647" y="226.899"/>
      <point x="371.857" y="285.349" type="curve" smooth="yes"/>
      <point x="372.212" y="384.713"/>
      <point x="353.438" y="526.58"/>
      <point x="289.045" y="530.168" type="curve"/>
    </contour>
  </outline>
</glyph>
<glyph name="P" format="2">
  <advance width="623"/>
  <unicode hex="0050"/>
  <outline>
    <contour>
      <point x="225.961" y="333.356" type="line"/>
      <point x="297.103" y="333" type="line" smooth="yes"/>
      <point x="374.111" y="332.615"/>
      <point x="405.836" y="390"/>
      <point x="405.979" y="460" type="curve" smooth="yes"/>
      <point x="406.143" y="540"/>
      <point x="350" y="569.955"/>
      <point x="292" y="569.927" type="curve" smooth="yes"/>
      <point x="245" y="569.905" type="line"/>
    </contour>
    <contour>
      <point x="366" y="204" type="curve" smooth="yes"/>
      <point x="223.119" y="204.165" type="line"/>
      <point x="205" y="0" type="line"/>
      <point x="35" y="0" type="line"/>
      <point x="35" y="700" type="line"/>
      <point x="319" y="699.867" type="line" smooth="yes"/>
      <point x="462" y="699.801"/>
      <point x="586" y="623"/>
      <point x="586" y="460" type="curve" smooth="yes"/>
      <point x="586" y="375"/>
      <point x="534" y="203.806"/>
    </contour>
  </outline>
</glyph>
<glyph name="Q" format="2">
  <advance width="691"/>
  <unicode hex="0051"/>
  <outline>
    <contour>
      <point x="293" y="301" type="curve"/>
      <point x="474" y="301" type="line"/>
      <point x="517" y="208.27"/>
      <point x="523.979" y="160.339"/>
      <point x="571" y="183" type="curve" smooth="yes"/>
      <point x="654" y="223" type="line"/>
      <point x="654" y="0" type="line"/>
      <point x="546" y="0" type="line" smooth="yes"/>
      <point x="418" y="0"/>
      <point x="337" y="172"/>
    </contour>
    <contour>
      <point x="304.529" y="710.031" type="curve"/>
      <point x="304.529" y="710.031" type="line"/>
      <point x="526" y="710.053"/>
      <point x="572.059" y="467.442"/>
      <point x="572.059" y="351.199" type="curve" smooth="yes"/>
      <point x="572.059" y="246.716"/>
      <point x="533.34" y="-10"/>
      <point x="304.529" y="-10" type="curve"/>
      <point x="304.529" y="-10" type="line"/>
      <point x="77" y="-10.0106"/>
      <point x="37" y="233.589"/>
      <point x="37" y="349.832" type="curve" smooth="yes"/>
      <point x="37" y="455.134"/>
      <point x="75.7189" y="710.031"/>
    </contour>
    <contour>
      <point x="289.045" y="530.168" type="line"/>
      <point x="245.819" y="530.168"/>
      <point x="232.622" y="469.612"/>
      <point x="232.622" y="411.095" type="curve" smooth="yes"/>
      <point x="232.622" y="311.213"/>
      <point x="251.588" y="170.891"/>
      <point x="316.483" y="167.302" type="curve"/>
      <point x="316.483" y="167.302" type="line"/>
      <point x="357.609" y="167.302"/>
      <point x="371.647" y="226.899"/>
      <point x="371.857" y="285.349" type="curve" smooth="yes"/>
      <point x="372.212" y="384.713"/>
      <point x="353.438" y="526.58"/>
      <point x="289.045" y="530.168" type="curve"/>
    </contour>
  </outline>
</glyph>
<glyph name="R" format="2">
  <advance width="576"/>
  <unicode hex="0052"/>
  <outline>
    <contour>
      <point x="397.15" y="210.287" type="curve"/>
      <point x="396" y="210" type="line"/>
      <point x="458" y="165"/>
      <point x="508.052" y="101.957"/>
      <point x="555.293" y="-0.0794983" type="curve"/>
      <point x="328.949" y="-0.0794983" type="line"/>
      <point x="289.075" y="117.265"/>
      <point x="259" y="204.165"/>
      <point x="231.119" y="204.165" type="curve" smooth="yes"/>
      <point x="223.119" y="204.165" type="line"/>
      <point x="205" y="0" type="line"/>
      <point x="35" y="0" type="line"/>
      <point x="35" y="700" type="line"/>
      <point x="289" y="699.867" type="line" smooth="yes"/>
      <point x="431.836" y="699.793"/>
      <point x="556" y="623"/>
      <point x="556" y="460" type="curve" smooth="yes"/>
      <point x="556" y="365"/>
      <point x="528.704" y="264.287"/>
    </contour>
    <contour>
      <point x="225.961" y="333.356" type="line"/>
      <point x="267.103" y="333" type="line" smooth="yes"/>
      <point x="344.109" y="332.334"/>
      <point x="375.836" y="390"/>
      <point x="375.979" y="460" type="curve" smooth="yes"/>
      <point x="376.143" y="540"/>
      <point x="320" y="570.005"/>
      <point x="262" y="569.927" type="curve" smooth="yes"/>
      <point x="245" y="569.905" type="line"/>
    </contour>
  </outline>
</glyph>
<glyph name="T" format="2">
  <advance width="460"/>
  <unicode hex="0054"/>
  <outline>
    <contour>
      <point x="20" y="480" type="curve"/>
      <point x="20" y="700" type="line"/>
      <point x="440" y="700" type="line"/>
      <point x="440" y="480" type="line"/>
      <point x="328.624" y="566"/>
      <point x="320.183" y="500.713"/>
      <point x="323.022" y="397.179" type="curve"/>
      <point x="340" y="0" type="line"/>
      <point x="120" y="0" type="line"/>
      <point x="136.978" y="397.179" type="line"/>
      <point x="141.795" y="500.713"/>
      <point x="131.355" y="566"/>
    </contour>
  </outline>
</glyph>
<glyph name="U" format="2">
  <advance width="608"/>
  <unicode hex="0055"/>
  <outline>
    <contour>
      <point x="572" y="700" type="line"/>
      <point x="572.057" y="361.199" type="line" smooth="yes"/>
      <point x="572.076" y="245.952"/>
      <point x="573.507" y="-9.67778"/>
      <point x="304.529" y="-10" type="curve"/>
      <point x="304.529" y="-10" type="line"/>
      <point x="34.5162" y="-9.7289"/>
      <point x="35.9564" y="245.999"/>
      <point x="35.9675" y="361.085" type="curve" smooth="yes"/>
      <point x="36" y="700" type="line"/>
      <point x="256" y="700" type="line"/>
      <point x="231.053" y="461.199" type="line" smooth="yes"/>
      <point x="219.21" y="347.834"/>
      <point x="212.036" y="160.241"/>
      <point x="304.529" y="160.351" type="curve"/>
      <point x="304.529" y="160.351" type="line"/>
      <point x="395.963" y="160.259"/>
      <point x="388.81" y="347.989"/>
      <point x="376.971" y="461.199" type="curve" smooth="yes"/>
      <point x="352" y="700" type="line"/>
    </contour>
  </outline>
</glyph>
<glyph name="V" format="2">
  <advance width="599"/>
  <unicode hex="0056"/>
  <outline>
    <contour>
      <point x="298.61" y="0" type="curve"/>
      <point x="298.61" y="0" type="line"/>
      <point x="393.014" y="0"/>
      <point x="445.609" y="87.7643"/>
      <point x="579" y="700" type="curve"/>
      <point x="358" y="700" type="line"/>
      <point x="330.582" y="237.701"/>
      <point x="323.055" y="190"/>
      <point x="303.36" y="190" type="curve" smooth="yes"/>
      <point x="283.9" y="190"/>
      <point x="277.612" y="237.701"/>
      <point x="241" y="700" type="curve"/>
      <point x="20" y="700" type="line"/>
      <point x="173.192" y="87.8641"/>
      <point x="203" y="0"/>
    </contour>
  </outline>
</glyph>
<glyph name="W" format="2">
  <advance width="962"/>
  <unicode hex="0057"/>
  <outline>
    <contour>
      <point x="298.61" y="0" type="curve"/>
      <point x="298.6" y="0" type="line"/>
      <point x="383.456" y="0"/>
      <point x="440" y="68.0524"/>
      <point x="480" y="340" type="curve"/>
      <point x="536.192" y="68.0497"/>
      <point x="576" y="0"/>
      <point x="661.852" y="0" type="curve"/>
      <point x="661.852" y="0" type="line"/>
      <point x="755.551" y="0"/>
      <point x="803" y="87.8677"/>
      <point x="942" y="700" type="curve"/>
      <point x="722" y="700" type="line"/>
      <point x="695.957" y="237.821"/>
      <point x="687.781" y="190"/>
      <point x="662.644" y="190" type="curve"/>
      <point x="637.914" y="190.471"/>
      <point x="629.204" y="237.821"/>
      <point x="585" y="670" type="curve"/>
      <point x="375" y="670" type="line"/>
      <point x="340.832" y="237.843"/>
      <point x="328.706" y="190.158"/>
      <point x="305.191" y="190" type="curve" smooth="yes"/>
      <point x="281.776" y="189.842"/>
      <point x="275.55" y="238.208"/>
      <point x="240" y="699.682" type="curve"/>
      <point x="20" y="700.003" type="line"/>
      <point x="157.95" y="86.5904"/>
      <point x="203.137" y="0"/>
    </contour>
  </outline>
</glyph>
<glyph name="X" format="2">
  <advance width="577"/>
  <unicode hex="0058"/>
  <outline>
    <contour>
      <point x="359" y="0" type="curve"/>
      <point x="543" y="0" type="line"/>
      <point x="521.472" y="118.869"/>
      <point x="445.897" y="336.34"/>
      <point x="378.369" y="360.21" type="curve"/>
      <point x="450.517" y="402.34"/>
      <point x="524.852" y="587.869"/>
      <point x="557" y="700" type="curve"/>
      <point x="333" y="700" type="line"/>
      <point x="326.965" y="613.353"/>
      <point x="331.761" y="462.007"/>
      <point x="288.57" y="437.007" type="curve"/>
      <point x="242.789" y="462.007"/>
      <point x="249.005" y="613.353"/>
      <point x="245" y="700" type="curve"/>
      <point x="20" y="700" type="line"/>
      <point x="47.5018" y="584.591"/>
      <point x="117.201" y="393.685"/>
      <point x="189.702" y="358.277" type="curve"/>
      <point x="121.821" y="332.685"/>
      <point x="55.8817" y="115.591"/>
      <point x="34" y="0" type="curve"/>
      <point x="228" y="0" type="line"/>
      <point x="233.636" y="92.5396"/>
      <point x="237.537" y="214.724"/>
      <point x="288.57" y="259.724" type="curve"/>
      <point x="344.721" y="214.724"/>
      <point x="347.406" y="92.5396"/>
    </contour>
  </outline>
</glyph>
<glyph name="Y" format="2">
  <advance width="601"/>
  <unicode hex="0059"/>
  <outline>
    <contour>
      <point x="118" y="0" type="line"/>
      <point x="316" y="0" type="line"/>
      <point x="601" y="700" type="line"/>
      <point x="378" y="700" type="line"/>
      <point x="320" y="423.399"/>
      <point x="321" y="382"/>
      <point x="295" y="382" type="curve" smooth="yes"/>
      <point x="273" y="382"/>
      <point x="273" y="430"/>
      <point x="241" y="700" type="curve"/>
      <point x="20" y="700" type="line"/>
      <point x="135" y="273.04"/>
      <point x="151" y="224"/>
      <point x="235" y="229.718" type="curve"/>
    </contour>
  </outline>
</glyph>
<glyph name="Z" format="2">
  <advance width="484"/>
  <unicode hex="005A"/>
  <outline>
    <contour>
      <point x="316.383" y="700" type="line" smooth="yes"/>
      <point x="490" y="700.02"/>
      <point x="485.213" y="545.859"/>
      <point x="321.56" y="344.491" type="curve" smooth="yes"/>
      <point x="249.89" y="256.304"/>
      <point x="178.866" y="157.83"/>
      <point x="253.883" y="157.83" type="curve" smooth="yes"/>
      <point x="299.044" y="157.83"/>
      <point x="405.647" y="178.968"/>
      <point x="463.578" y="220" type="curve"/>
      <point x="463.578" y="0" type="line"/>
      <point x="147.042" y="0" type="line" smooth="yes"/>
      <point x="-74" y="0"/>
      <point x="38.7346" y="213.257"/>
      <point x="146.15" y="347.535" type="curve" smooth="yes"/>
      <point x="218.15" y="437.541"/>
      <point x="275" y="532.021"/>
      <point x="207" y="532.021" type="curve" smooth="yes"/>
      <point x="178.826" y="532.021"/>
      <point x="120.696" y="521.851"/>
      <point x="59.7935" y="490" type="curve"/>
      <point x="60.7935" y="699.971" type="line"/>
    </contour>
  </outline>
</glyph>
<glyph name="bracketleft" format="2">
  <advance width="370"/>
  <unicode hex="005B"/>
  <outline>
    <contour>
      <point x="80" y="770" type="curve" smooth="yes"/>
      <point x="80" y="-37" type="line"/>
      <point x="79.7598" y="-67.2006"/>
      <point x="100" y="-87"/>
      <point x="129.973" y="-87" type="curve" smooth="yes"/>
      <point x="360" y="-87" type="line"/>
      <point x="360" y="123" type="line"/>
      <point x="283.334" y="100" type="line"/>
      <point x="260" y="93" type="line"/>
      <point x="260" y="640" type="line"/>
      <point x="294.197" y="629.741" type="line"/>
      <point x="360" y="610" type="line"/>
      <point x="360" y="820" type="line"/>
      <point x="129.974" y="820" type="line" smooth="yes"/>
      <point x="100" y="820"/>
      <point x="79.9977" y="800"/>
    </contour>
  </outline>
</glyph>
<glyph name="bracketright" format="2">
  <advance width="371"/>
  <unicode hex="005D"/>
  <outline>
    <contour>
      <point x="290.76" y="770" type="line" smooth="yes"/>
      <point x="290.762" y="800"/>
      <point x="270.76" y="820"/>
      <point x="240.786" y="820" type="curve" smooth="yes"/>
      <point x="10.7598" y="820" type="line"/>
      <point x="10.7598" y="610" type="line"/>
      <point x="81.2638" y="631.151" type="line"/>
      <point x="110.76" y="640" type="line"/>
      <point x="110.76" y="93" type="line"/>
      <point x="78.401" y="102.708" type="line"/>
      <point x="10.7598" y="123" type="line"/>
      <point x="10.7598" y="-87" type="line"/>
      <point x="240.787" y="-87" type="line" smooth="yes"/>
      <point x="270.76" y="-87"/>
      <point x="291" y="-67.2006"/>
      <point x="290.76" y="-37" type="curve"/>
    </contour>
  </outline>
</glyph>
<glyph name="asciicircum" format="2">
  <advance width="617"/>
  <unicode hex="005E"/>
  <outline>
    <contour>
      <point x="50.6591" y="200" type="line"/>
      <point x="250.659" y="199.636" type="line"/>
      <point x="308.659" y="484" type="line"/>
      <point x="368" y="200" type="line"/>
      <point x="567" y="200" type="line"/>
      <point x="404" y="700" type="line"/>
      <point x="214" y="700" type="line"/>
    </contour>
  </outline>
</glyph>
<glyph name="grave" format="2">
  <advance width="307"/>
  <unicode hex="0060"/>
  <outline>
    <contour>
      <point x="49" y="640" type="curve" smooth="yes"/>
      <point x="60.115" y="610.968"/>
      <point x="78.19" y="589.75"/>
      <point x="97" y="565" type="curve"/>
      <point x="277" y="565" type="line"/>
      <point x="264.79" y="593.05"/>
      <point x="255.328" y="620.069"/>
      <point x="249" y="650" type="curve" smooth="yes"/>
      <point x="242.856" y="679.058"/>
      <point x="240" y="720.3"/>
      <point x="240" y="750" type="curve"/>
      <point x="30" y="750" type="line"/>
      <point x="33.3" y="717"/>
      <point x="37.1421" y="670.972"/>
    </contour>
  </outline>
</glyph>
<glyph name="a" format="2">
  <advance width="719"/>
  <unicode hex="0061"/>
  <outline>
    <contour>
      <point x="689" y="500" type="curve"/>
      <point x="489" y="500" type="line"/>
      <point x="494.438" y="199.021"/>
      <point x="489.454" y="163.525"/>
      <point x="476.454" y="163.525" type="curve" smooth="yes"/>
      <point x="464.771" y="163.525"/>
      <point x="463.031" y="194.41"/>
      <point x="453.392" y="284" type="curve" smooth="yes"/>
      <point x="436.185" y="443.925"/>
      <point x="352" y="505"/>
      <point x="246" y="505" type="curve" smooth="yes"/>
      <point x="100" y="505"/>
      <point x="32" y="372"/>
      <point x="32" y="250" type="curve" smooth="yes"/>
      <point x="32" y="150.998"/>
      <point x="72" y="0"/>
      <point x="232" y="0" type="curve" smooth="yes"/>
      <point x="338" y="0"/>
      <point x="409.667" y="107.469"/>
      <point x="420.667" y="158.469" type="curve"/>
      <point x="395.439" y="389.845" type="line"/>
      <point x="334.448" y="259.298"/>
      <point x="312.917" y="171.361"/>
      <point x="258" y="171.133" type="curve" smooth="yes"/>
      <point x="226.945" y="171.005"/>
      <point x="202" y="201.004"/>
      <point x="202" y="267.015" type="curve" smooth="yes"/>
      <point x="202" y="318"/>
      <point x="220.405" y="351.859"/>
      <point x="243.405" y="351.859" type="curve" smooth="yes"/>
      <point x="271.405" y="351.859"/>
      <point x="281.784" y="308.473"/>
      <point x="289.991" y="264.827" type="curve" smooth="yes"/>
      <point x="318.598" y="112.704"/>
      <point x="343" y="0"/>
      <point x="478" y="0" type="curve"/>
      <point x="478" y="0" type="line"/>
      <point x="627" y="0"/>
      <point x="654.17" y="141.059"/>
    </contour>
  </outline>
</glyph>
<glyph name="b" format="2">
  <advance width="713"/>
  <unicode hex="0062"/>
  <outline>
    <contour>
      <point x="30" y="750" type="line"/>
      <point x="57.8302" y="141.059"/>
      <point x="86" y="0"/>
      <point x="235" y="0" type="curve"/>
      <point x="235" y="0" type="line"/>
      <point x="370" y="0"/>
      <point x="394.402" y="112.704"/>
      <point x="423.009" y="264.827" type="curve" smooth="yes"/>
      <point x="431.216" y="308.473"/>
      <point x="441.595" y="351.859"/>
      <point x="469.595" y="351.859" type="curve" smooth="yes"/>
      <point x="492.595" y="351.859"/>
      <point x="511" y="318"/>
      <point x="511" y="267.015" type="curve" smooth="yes"/>
      <point x="511" y="201.004"/>
      <point x="486.055" y="171.005"/>
      <point x="455" y="171.133" type="curve" smooth="yes"/>
      <point x="400.083" y="171.361"/>
      <point x="378.552" y="259.298"/>
      <point x="317.561" y="389.845" type="curve"/>
      <point x="292.333" y="158.469" type="line"/>
      <point x="303.333" y="107.469"/>
      <point x="375" y="0"/>
      <point x="481" y="0" type="curve" smooth="yes"/>
      <point x="641" y="0"/>
      <point x="681" y="150.998"/>
      <point x="681" y="250" type="curve" smooth="yes"/>
      <point x="681" y="372"/>
      <point x="613" y="505"/>
      <point x="467" y="505" type="curve" smooth="yes"/>
      <point x="361" y="505"/>
      <point x="276.815" y="443.925"/>
      <point x="259.608" y="284" type="curve" smooth="yes"/>
      <point x="249.969" y="194.41"/>
      <point x="247.546" y="163.525"/>
      <point x="236.546" y="163.525" type="curve" smooth="yes"/>
      <point x="223.546" y="163.525"/>
      <point x="219.026" y="199.441"/>
      <point x="230" y="750" type="curve"/>
    </contour>
  </outline>
</glyph>
<glyph name="c" format="2">
  <advance width="479"/>
  <unicode hex="0063"/>
  <outline>
    <contour>
      <point x="458.121" y="60.2176" type="line"/>
      <point x="388.667" y="12.549"/>
      <point x="330.077" y="-7"/>
      <point x="263" y="-7" type="curve" smooth="yes"/>
      <point x="83" y="-7"/>
      <point x="32" y="143"/>
      <point x="32" y="258" type="curve" smooth="yes"/>
      <point x="32" y="375"/>
      <point x="113" y="507.04"/>
      <point x="263" y="507.04" type="curve" smooth="yes"/>
      <point x="331.393" y="507.04"/>
      <point x="381.286" y="487.101"/>
      <point x="415.538" y="470.327" type="curve"/>
      <point x="356" y="289.325" type="line"/>
      <point x="340.062" y="306.3"/>
      <point x="316.566" y="340"/>
      <point x="282.576" y="340" type="curve" smooth="yes"/>
      <point x="255.998" y="340"/>
      <point x="231.836" y="314.934"/>
      <point x="231.419" y="267.936" type="curve" smooth="yes"/>
      <point x="230.923" y="212.091"/>
      <point x="254.576" y="175.277"/>
      <point x="296.576" y="174.961" type="curve" smooth="yes"/>
      <point x="329.255" y="174.715"/>
      <point x="363.118" y="190.851"/>
      <point x="407.576" y="215" type="curve"/>
    </contour>
  </outline>
</glyph>
<glyph name="e" format="2">
  <advance width="489"/>
  <unicode hex="0065"/>
  <outline>
    <contour>
      <point x="444.545" y="46" type="line"/>
      <point x="372.352" y="6.19996"/>
      <point x="328" y="-4"/>
      <point x="271.424" y="-4" type="curve" smooth="yes"/>
      <point x="83.8149" y="-4"/>
      <point x="32" y="139.999"/>
      <point x="32" y="261" type="curve" smooth="yes"/>
      <point x="32" y="353"/>
      <point x="79.7291" y="510.04"/>
      <point x="257" y="510.04" type="curve" smooth="yes"/>
      <point x="258" y="510.04" type="line" smooth="yes"/>
      <point x="433" y="510.04"/>
      <point x="469" y="347"/>
      <point x="469" y="261" type="curve" smooth="yes"/>
      <point x="469" y="199" type="line"/>
      <point x="45" y="199" type="line"/>
      <point x="45" y="309" type="line"/>
      <point x="292" y="309.257" type="line"/>
      <point x="286" y="346"/>
      <point x="269" y="351.726"/>
      <point x="251" y="353" type="curve"/>
      <point x="252" y="353" type="line"/>
      <point x="230.422" y="352.15"/>
      <point x="210" y="334.796"/>
      <point x="210" y="271.015" type="curve" smooth="yes"/>
      <point x="210" y="188"/>
      <point x="239.969" y="138.87"/>
      <point x="303.019" y="138.556" type="curve" smooth="yes"/>
      <point x="321.723" y="138.463"/>
      <point x="357.542" y="143.851"/>
      <point x="398" y="167" type="curve"/>
    </contour>
  </outline>
</glyph>
<glyph name="f" format="2">
  <advance width="401"/>
  <unicode hex="0066"/>
  <outline>
    <contour>
      <point x="38" y="0" type="curve"/>
      <point x="258" y="0" type="line"/>
      <point x="242.576" y="115.052"/>
      <point x="233.249" y="196.022"/>
      <point x="227.638" y="261.759" type="curve"/>
      <point x="234.77" y="313.128"/>
      <point x="259.089" y="332.037"/>
      <point x="284.6" y="332" type="curve" smooth="yes"/>
      <point x="303.6" y="331.95"/>
      <point x="324.05" y="317.95"/>
      <point x="340" y="301.3" type="curve"/>
      <point x="399.55" y="482.35" type="line"/>
      <point x="374.95" y="498.65"/>
      <point x="343.65" y="509.3"/>
      <point x="307" y="510" type="curve" smooth="yes"/>
      <point x="271.858" y="510.677"/>
      <point x="242.552" y="500.875"/>
      <point x="219.021" y="483.185" type="curve"/>
      <point x="219.018" y="486.448"/>
      <point x="219.012" y="489.849"/>
      <point x="219.008" y="493.285" type="curve"/>
      <point x="222.993" y="556.442"/>
      <point x="249.417" y="579"/>
      <point x="277.6" y="579" type="curve" smooth="yes"/>
      <point x="299.95" y="579"/>
      <point x="326.05" y="564.95"/>
      <point x="342" y="548.35" type="curve"/>
      <point x="400.55" y="719.35" type="line"/>
      <point x="352.7" y="742.15"/>
      <point x="303.194" y="756"/>
      <point x="256" y="756" type="curve" smooth="yes"/>
      <point x="137.787" y="756"/>
      <point x="40.7353" y="660.154"/>
      <point x="39" y="538" type="curve" smooth="yes"/>
      <point x="38.0635" y="472.08"/>
      <point x="38.2436" y="404.979"/>
      <point x="38.272" y="337.596" type="curve" smooth="yes"/>
      <point x="38.3197" y="224.412"/>
      <point x="39.4015" y="110.448"/>
    </contour>
  </outline>
</glyph>
<glyph name="g" format="2">
  <advance width="712"/>
  <unicode hex="0067"/>
  <outline>
    <contour>
      <point x="275.983" y="-250" type="curve" smooth="yes"/>
      <point x="445.954" y="-250"/>
      <point x="589.013" y="-161.007"/>
      <point x="642" y="197.038" type="curve"/>
      <point x="609.99" y="157.756"/>
      <point x="496.938" y="78.753"/>
      <point x="453" y="77" type="curve"/>
      <point x="431.072" y="-20.0279"/>
      <point x="385" y="-90"/>
      <point x="273.983" y="-90" type="curve" smooth="yes"/>
      <point x="208.983" y="-90"/>
      <point x="143.086" y="-64.4203"/>
      <point x="72.9349" y="-21.2715" type="curve"/>
      <point x="73" y="-196" type="line"/>
      <point x="139.653" y="-237.817"/>
      <point x="208.891" y="-250"/>
    </contour>
    <contour>
      <point x="682" y="500" type="curve"/>
      <point x="482" y="500" type="line"/>
      <point x="487.438" y="199.021"/>
      <point x="483.454" y="163.525"/>
      <point x="474.454" y="163.525" type="curve" smooth="yes"/>
      <point x="464.771" y="163.525"/>
      <point x="464.031" y="194.41"/>
      <point x="454.392" y="284" type="curve" smooth="yes"/>
      <point x="437.185" y="443.925"/>
      <point x="353" y="505"/>
      <point x="247" y="505" type="curve" smooth="yes"/>
      <point x="101" y="505"/>
      <point x="33" y="372"/>
      <point x="33" y="250" type="curve" smooth="yes"/>
      <point x="33" y="150.998"/>
      <point x="73" y="0"/>
      <point x="233" y="0" type="curve" smooth="yes"/>
      <point x="339" y="0"/>
      <point x="410.667" y="107.469"/>
      <point x="421.667" y="158.469" type="curve"/>
      <point x="396.439" y="389.845" type="line"/>
      <point x="335.448" y="259.298"/>
      <point x="313.917" y="171.361"/>
      <point x="259" y="171.133" type="curve" smooth="yes"/>
      <point x="227.945" y="171.005"/>
      <point x="203" y="201.004"/>
      <point x="203" y="267.015" type="curve" smooth="yes"/>
      <point x="203" y="318"/>
      <point x="221.405" y="351.859"/>
      <point x="244.405" y="351.859" type="curve" smooth="yes"/>
      <point x="272.405" y="351.859"/>
      <point x="282.784" y="308.473"/>
      <point x="290.991" y="264.827" type="curve" smooth="yes"/>
      <point x="319.598" y="112.704"/>
      <point x="336" y="0"/>
      <point x="471" y="0" type="curve"/>
      <point x="471" y="0" type="line"/>
      <point x="620" y="0"/>
      <point x="647.17" y="141.059"/>
    </contour>
  </outline>
</glyph>
<glyph name="h" format="2">
  <advance width="728"/>
  <unicode hex="0068"/>
  <outline>
    <contour>
      <point x="38" y="750" type="line"/>
      <point x="35" y="179"/>
      <point x="83" y="0"/>
      <point x="259" y="0" type="curve" smooth="yes"/>
      <point x="260" y="0" type="line" smooth="yes"/>
      <point x="381" y="0"/>
      <point x="439.497" y="101.643"/>
      <point x="452" y="215" type="curve" smooth="yes"/>
      <point x="462" y="305.666"/>
      <point x="471.949" y="337.742"/>
      <point x="495.973" y="337.483" type="curve" smooth="yes"/>
      <point x="530.9" y="337.106"/>
      <point x="520.69" y="263.8"/>
      <point x="517" y="241" type="curve" smooth="yes"/>
      <point x="478" y="0" type="line"/>
      <point x="698" y="0" type="line"/>
      <point x="698" y="80.3497"/>
      <point x="698" y="161.998"/>
      <point x="698" y="241" type="curve" smooth="yes"/>
      <point x="698" y="373"/>
      <point x="664" y="508"/>
      <point x="487" y="508" type="curve" smooth="yes"/>
      <point x="358" y="508"/>
      <point x="293.28" y="409.635"/>
      <point x="280.596" y="289.072" type="curve" smooth="yes"/>
      <point x="273.779" y="224.28"/>
      <point x="273" y="177"/>
      <point x="254" y="177" type="curve" smooth="yes"/>
      <point x="234" y="177"/>
      <point x="231" y="243"/>
      <point x="258" y="750" type="curve"/>
    </contour>
  </outline>
</glyph>
<glyph name="i" format="2">
  <advance width="303"/>
  <unicode hex="0069"/>
  <outline>
    <contour>
      <point x="263" y="500" type="line"/>
      <point x="237" y="409"/>
      <point x="214.489" y="346"/>
      <point x="214" y="284" type="curve" smooth="yes"/>
      <point x="213.337" y="200"/>
      <point x="236" y="124"/>
      <point x="264" y="0" type="curve"/>
      <point x="44" y="0" type="line"/>
      <point x="40" y="93.72"/>
      <point x="33.6199" y="190.109"/>
      <point x="34" y="284" type="curve" smooth="yes"/>
      <point x="34.293" y="356.374"/>
      <point x="37" y="428.72"/>
      <point x="42" y="500" type="curve"/>
    </contour>
    <contour>
      <point x="234.95" y="608" type="curve" smooth="yes"/>
      <point x="270.546" y="634.819"/>
      <point x="287.809" y="712.162"/>
      <point x="254.39" y="741.65" type="curve" smooth="yes"/>
      <point x="212.099" y="778.966"/>
      <point x="128.526" y="775.589"/>
      <point x="83.48" y="741.65" type="curve" smooth="yes"/>
      <point x="48.213" y="715.079"/>
      <point x="43.8899" y="637.215"/>
      <point x="77" y="608" type="curve" smooth="yes"/>
      <point x="116.084" y="573.514"/>
      <point x="193.32" y="576.635"/>
    </contour>
  </outline>
</glyph>
<glyph name="j" format="2">
  <advance width="458"/>
  <unicode hex="006A"/>
  <outline>
    <contour>
      <point x="30" y="-186" type="curve"/>
      <point x="30" y="35.2181" type="line"/>
      <point x="55.7277" y="1.59819"/>
      <point x="116.056" y="-67.5568"/>
      <point x="161.073" y="-66.8646" type="curve" smooth="yes"/>
      <point x="235.003" y="-65.7278"/>
      <point x="197.843" y="49.9596"/>
      <point x="199" y="284.349" type="curve" smooth="yes"/>
      <point x="199.356" y="356.374"/>
      <point x="202" y="428.72"/>
      <point x="207" y="500" type="curve"/>
      <point x="428" y="500" type="line"/>
      <point x="402" y="409"/>
      <point x="379" y="346"/>
      <point x="379" y="284" type="curve" smooth="yes"/>
      <point x="379" y="54.3297"/>
      <point x="469" y="-249.974"/>
      <point x="229.143" y="-249.974" type="curve" smooth="yes"/>
      <point x="152.051" y="-249.974"/>
      <point x="72.6647" y="-217.816"/>
    </contour>
    <contour>
      <point x="384.95" y="608" type="curve" smooth="yes"/>
      <point x="420.546" y="634.819"/>
      <point x="437.809" y="712.162"/>
      <point x="404.39" y="741.65" type="curve" smooth="yes"/>
      <point x="362.099" y="778.966"/>
      <point x="278.526" y="775.589"/>
      <point x="233.48" y="741.65" type="curve" smooth="yes"/>
      <point x="198.213" y="715.079"/>
      <point x="193.89" y="637.215"/>
      <point x="227" y="608" type="curve" smooth="yes"/>
      <point x="266.084" y="573.514"/>
      <point x="343.32" y="576.635"/>
    </contour>
  </outline>
</glyph>
<glyph name="k" format="2">
  <advance width="679"/>
  <unicode hex="006B"/>
  <outline>
    <contour>
      <point x="25" y="750" type="line"/>
      <point x="54.0722" y="141"/>
      <point x="92" y="-7"/>
      <point x="238" y="-7" type="curve" smooth="yes"/>
      <point x="239" y="-7" type="line" smooth="yes"/>
      <point x="338.949" y="-7"/>
      <point x="385.759" y="111.296"/>
      <point x="398.42" y="197.341" type="curve"/>
      <point x="418.343" y="197.153"/>
      <point x="417" y="165"/>
      <point x="439.745" y="0" type="curve"/>
      <point x="649.745" y="0" type="line"/>
      <point x="540.64" y="275.717"/>
      <point x="509" y="336.878"/>
      <point x="419.481" y="333.224" type="curve"/>
      <point x="419.084" y="340.883"/>
      <point x="434" y="350"/>
      <point x="454.576" y="350" type="curve" smooth="yes"/>
      <point x="505.375" y="350"/>
      <point x="555.98" y="316.516"/>
      <point x="579.02" y="292.218" type="curve"/>
      <point x="658.87" y="428.221" type="line"/>
      <point x="616.15" y="473.8"/>
      <point x="556.074" y="507.065"/>
      <point x="479" y="508" type="curve" smooth="yes"/>
      <point x="364.009" y="509.395"/>
      <point x="284.347" y="430.008"/>
      <point x="266.608" y="312.003" type="curve" smooth="yes"/>
      <point x="258.329" y="256.923"/>
      <point x="249" y="187.007"/>
      <point x="237" y="187.007" type="curve" smooth="yes"/>
      <point x="224" y="187.007"/>
      <point x="227" y="253"/>
      <point x="235" y="750" type="curve"/>
    </contour>
  </outline>
</glyph>
<glyph name="l" format="2">
  <advance width="306"/>
  <unicode hex="006C"/>
  <outline>
    <contour>
      <point x="276" y="750" type="line"/>
      <point x="247" y="659"/>
      <point x="217" y="586.432"/>
      <point x="217" y="514" type="curve" smooth="yes"/>
      <point x="217" y="337.335"/>
      <point x="248" y="176.22"/>
      <point x="275" y="0" type="curve"/>
      <point x="55" y="0" type="line"/>
      <point x="48.46" y="176.22"/>
      <point x="37" y="347.334"/>
      <point x="37" y="524" type="curve" smooth="yes"/>
      <point x="37" y="596.375"/>
      <point x="46" y="669"/>
      <point x="55" y="750" type="curve"/>
    </contour>
  </outline>
</glyph>
<glyph name="m" format="2">
  <advance width="970"/>
  <unicode hex="006D"/>
  <outline>
    <contour>
      <point x="30" y="500" type="line"/>
      <point x="47" y="139"/>
      <point x="94.6184" y="0"/>
      <point x="257" y="0.5" type="curve"/>
      <point x="258" y="-0.4833" type="line"/>
      <point x="383.033" y="0"/>
      <point x="431.98" y="101.163"/>
      <point x="444" y="215" type="curve" smooth="yes"/>
      <point x="453.595" y="305.873"/>
      <point x="463.988" y="338.171"/>
      <point x="485.974" y="337.54" type="curve" smooth="yes"/>
      <point x="517.748" y="336.629"/>
      <point x="507.946" y="264.18"/>
      <point x="506" y="252.75" type="curve" smooth="yes"/>
      <point x="504" y="241" type="line"/>
      <point x="465" y="0" type="line"/>
      <point x="675" y="0" type="line"/>
      <point x="685" y="201" type="line"/>
      <point x="684.674" y="217.84" type="line"/>
      <point x="686.078" y="248.207"/>
      <point x="688.613" y="282.75"/>
      <point x="693.199" y="303.917" type="curve" smooth="yes"/>
      <point x="696.91" y="321.043"/>
      <point x="707.661" y="336.613"/>
      <point x="722.969" y="337.544" type="curve" smooth="yes"/>
      <point x="754.663" y="339.471"/>
      <point x="759.129" y="285.816"/>
      <point x="753" y="241" type="curve" smooth="yes"/>
      <point x="720.015" y="-0.172607" type="line"/>
      <point x="940" y="0" type="line"/>
      <point x="940" y="241" type="line" smooth="yes"/>
      <point x="940" y="373"/>
      <point x="900" y="507.939"/>
      <point x="750.995" y="507.987" type="curve" smooth="yes"/>
      <point x="664.057" y="508.015"/>
      <point x="635.443" y="460.527"/>
      <point x="617.473" y="443.868" type="curve"/>
      <point x="599.009" y="461.419"/>
      <point x="559.595" y="508.028"/>
      <point x="473" y="508" type="curve" smooth="yes"/>
      <point x="344.475" y="507.959"/>
      <point x="284.489" y="410.278"/>
      <point x="272.501" y="289.072" type="curve" smooth="yes"/>
      <point x="266.098" y="224.341"/>
      <point x="264.778" y="177.724"/>
      <point x="246" y="177.265" type="curve" smooth="yes"/>
      <point x="226.012" y="176.775"/>
      <point x="223.153" y="242.718"/>
      <point x="250" y="500" type="curve"/>
    </contour>
  </outline>
</glyph>
<glyph name="n" format="2">
  <advance width="720"/>
  <unicode hex="006E"/>
  <outline>
    <contour>
      <point x="30" y="500" type="line"/>
      <point x="47" y="139"/>
      <point x="95" y="0"/>
      <point x="257" y="0" type="curve" smooth="yes"/>
      <point x="258" y="0" type="line" smooth="yes"/>
      <point x="383" y="0"/>
      <point x="431.497" y="101.643"/>
      <point x="444" y="215" type="curve" smooth="yes"/>
      <point x="454" y="305.666"/>
      <point x="463.949" y="337.742"/>
      <point x="487.973" y="337.483" type="curve" smooth="yes"/>
      <point x="522.9" y="337.106"/>
      <point x="512.69" y="263.8"/>
      <point x="509" y="241" type="curve" smooth="yes"/>
      <point x="470" y="0" type="line"/>
      <point x="690" y="0" type="line"/>
      <point x="690" y="241" type="line" smooth="yes"/>
      <point x="690" y="373"/>
      <point x="656" y="508"/>
      <point x="479" y="508" type="curve" smooth="yes"/>
      <point x="350" y="508"/>
      <point x="285.28" y="409.635"/>
      <point x="272.596" y="289.072" type="curve" smooth="yes"/>
      <point x="265.779" y="224.28"/>
      <point x="265" y="177"/>
      <point x="246" y="177" type="curve" smooth="yes"/>
      <point x="226" y="177"/>
      <point x="223" y="243"/>
      <point x="250" y="500" type="curve"/>
    </contour>
  </outline>
</glyph>
<glyph name="o" format="2">
  <advance width="526"/>
  <unicode hex="006F"/>
  <outline>
    <contour>
      <point x="263" y="509" type="curve"/>
      <point x="263" y="509" type="line"/>
      <point x="443" y="509"/>
      <point x="494" y="356"/>
      <point x="494" y="251" type="curve" smooth="yes"/>
      <point x="494" y="154.599"/>
      <point x="443" y="-8"/>
      <point x="263" y="-8" type="curve"/>
      <point x="263" y="-8" type="line"/>
      <point x="83" y="-8"/>
      <point x="32" y="145"/>
      <point x="32" y="250" type="curve" smooth="yes"/>
      <point x="32" y="347"/>
      <point x="83" y="509"/>
    </contour>
    <contour>
      <point x="257.508" y="337.055" type="line"/>
      <point x="230.803" y="337.055"/>
      <point x="214.834" y="301.064"/>
      <point x="214.834" y="264.344" type="curve" smooth="yes"/>
      <point x="214.834" y="224.755"/>
      <point x="233.679" y="165.029"/>
      <point x="268.492" y="163.945" type="curve"/>
      <point x="268.492" y="163.945" type="line"/>
      <point x="295.197" y="163.945"/>
      <point x="311.118" y="199.963"/>
      <point x="311.166" y="236.663" type="curve" smooth="yes"/>
      <point x="311.217" y="276.245"/>
      <point x="292.321" y="335.971"/>
      <point x="257.508" y="337.055" type="curve"/>
    </contour>
  </outline>
</glyph>
<glyph name="p" format="2">
  <advance width="726"/>
  <unicode hex="0070"/>
  <outline>
    <contour>
      <point x="37" y="500" type="line"/>
      <point x="61.8302" y="-108.941"/>
      <point x="89" y="-250"/>
      <point x="238" y="-250" type="curve"/>
      <point x="238" y="-250" type="line"/>
      <point x="373" y="-250"/>
      <point x="397.402" y="-137.296"/>
      <point x="436.009" y="264.827" type="curve" smooth="yes"/>
      <point x="440.253" y="309.035"/>
      <point x="454.595" y="351.859"/>
      <point x="482.595" y="351.859" type="curve" smooth="yes"/>
      <point x="505.595" y="351.859"/>
      <point x="524" y="318"/>
      <point x="524" y="267.015" type="curve" smooth="yes"/>
      <point x="524" y="201.004"/>
      <point x="499.055" y="171.005"/>
      <point x="468" y="171.133" type="curve" smooth="yes"/>
      <point x="413.083" y="171.361"/>
      <point x="391.552" y="259.298"/>
      <point x="330.561" y="389.845" type="curve"/>
      <point x="305.333" y="158.469" type="line"/>
      <point x="316.333" y="107.469"/>
      <point x="388" y="0"/>
      <point x="494" y="0" type="curve" smooth="yes"/>
      <point x="654" y="0"/>
      <point x="694" y="150.998"/>
      <point x="694" y="250" type="curve" smooth="yes"/>
      <point x="694" y="372"/>
      <point x="626" y="505"/>
      <point x="480" y="505" type="curve" smooth="yes"/>
      <point x="374" y="505"/>
      <point x="283.308" y="444.492"/>
      <point x="272.608" y="284" type="curve" smooth="yes"/>
      <point x="249.969" y="-55.5895"/>
      <point x="251.229" y="-86.4746"/>
      <point x="239.546" y="-86.4746" type="curve" smooth="yes"/>
      <point x="226.546" y="-86.4746"/>
      <point x="231.562" y="-50.9786"/>
      <point x="237" y="500" type="curve"/>
    </contour>
  </outline>
</glyph>
<glyph name="q" format="2">
  <advance width="719"/>
  <unicode hex="0071"/>
  <outline>
    <contour>
      <point x="689" y="500" type="curve"/>
      <point x="489" y="500" type="line"/>
      <point x="494.438" y="-50.9786"/>
      <point x="499.454" y="-86.4746"/>
      <point x="486.454" y="-86.4746" type="curve" smooth="yes"/>
      <point x="474.771" y="-86.4746"/>
      <point x="476.031" y="-55.5895"/>
      <point x="453.392" y="284" type="curve" smooth="yes"/>
      <point x="442.692" y="444.492"/>
      <point x="352" y="505"/>
      <point x="246" y="505" type="curve" smooth="yes"/>
      <point x="100" y="505"/>
      <point x="32" y="372"/>
      <point x="32" y="250" type="curve" smooth="yes"/>
      <point x="32" y="150.998"/>
      <point x="72" y="0"/>
      <point x="232" y="0" type="curve" smooth="yes"/>
      <point x="338" y="0"/>
      <point x="409.667" y="107.469"/>
      <point x="420.667" y="158.469" type="curve"/>
      <point x="395.439" y="389.845" type="line"/>
      <point x="334.448" y="259.298"/>
      <point x="312.917" y="171.361"/>
      <point x="258" y="171.133" type="curve" smooth="yes"/>
      <point x="226.945" y="171.005"/>
      <point x="202" y="201.004"/>
      <point x="202" y="267.015" type="curve" smooth="yes"/>
      <point x="202" y="318"/>
      <point x="220.405" y="351.859"/>
      <point x="243.405" y="351.859" type="curve" smooth="yes"/>
      <point x="271.405" y="351.859"/>
      <point x="285.747" y="309.035"/>
      <point x="289.991" y="264.827" type="curve" smooth="yes"/>
      <point x="328.598" y="-137.296"/>
      <point x="353" y="-250"/>
      <point x="488" y="-250" type="curve"/>
      <point x="488" y="-250" type="line"/>
      <point x="637" y="-250"/>
      <point x="664.17" y="-108.941"/>
    </contour>
  </outline>
</glyph>
<glyph name="r" format="2">
  <advance width="609"/>
  <unicode hex="0072"/>
  <outline>
    <contour>
      <point x="30" y="500" type="line"/>
      <point x="47" y="139"/>
      <point x="95.1977" y="0"/>
      <point x="237" y="0" type="curve" smooth="yes"/>
      <point x="238" y="0" type="line" smooth="yes"/>
      <point x="363" y="0"/>
      <point x="411.528" y="101.64"/>
      <point x="424" y="215" type="curve" smooth="yes"/>
      <point x="434.006" y="305.948"/>
      <point x="444.374" y="337.785"/>
      <point x="477.955" y="337.06" type="curve" smooth="yes"/>
      <point x="496.29" y="336.664"/>
      <point x="516.062" y="316.3"/>
      <point x="532" y="299.325" type="curve"/>
      <point x="588.538" y="470.327" type="line"/>
      <point x="544" y="497.101"/>
      <point x="496.439" y="508"/>
      <point x="459" y="508" type="curve" smooth="yes"/>
      <point x="330" y="508"/>
      <point x="268.808" y="420.695"/>
      <point x="255.596" y="289.072" type="curve" smooth="yes"/>
      <point x="249.098" y="224.336"/>
      <point x="249.481" y="177"/>
      <point x="236" y="177" type="curve" smooth="yes"/>
      <point x="222.062" y="177"/>
      <point x="223" y="243"/>
      <point x="250" y="500" type="curve"/>
    </contour>
  </outline>
</glyph>
<glyph name="s" format="2">
  <advance width="499"/>
  <unicode hex="0073"/>
  <outline>
    <contour>
      <point x="30.7174" y="51.2385" type="line"/>
      <point x="73.6893" y="28.3018"/>
      <point x="166.065" y="-9.7348"/>
      <point x="271.065" y="-9.7348" type="curve" smooth="yes"/>
      <point x="397.065" y="-9.7348"/>
      <point x="467.377" y="54.7606"/>
      <point x="468.036" y="139.472" type="curve" smooth="yes"/>
      <point x="469.171" y="285.476"/>
      <point x="228.08" y="307.704"/>
      <point x="228.08" y="343.395" type="curve" smooth="yes"/>
      <point x="228.08" y="354.526"/>
      <point x="245.306" y="357.511"/>
      <point x="257.303" y="357.509" type="curve" smooth="yes"/>
      <point x="312.968" y="357.499"/>
      <point x="391.409" y="317.748"/>
      <point x="436.864" y="274.265" type="curve"/>
      <point x="436.811" y="457.931" type="line"/>
      <point x="402.934" y="483.669"/>
      <point x="336" y="518"/>
      <point x="241.437" y="518" type="curve" smooth="yes"/>
      <point x="95.2883" y="518"/>
      <point x="45.2292" y="434.128"/>
      <point x="44.5963" y="364" type="curve" smooth="yes"/>
      <point x="43.2501" y="214.834"/>
      <point x="291.421" y="182.87"/>
      <point x="291.421" y="139.87" type="curve" smooth="yes"/>
      <point x="291.421" y="131.257"/>
      <point x="282.482" y="127.756"/>
      <point x="270.199" y="127.756" type="curve" smooth="yes"/>
      <point x="225.199" y="127.756"/>
      <point x="76.4311" y="202.438"/>
      <point x="30.7028" y="245.057" type="curve"/>
    </contour>
  </outline>
</glyph>
<glyph name="t" format="2">
  <advance width="395"/>
  <unicode hex="0074"/>
  <outline>
    <contour>
      <point x="146.608" y="291.003" type="line"/>
      <point x="145" y="413.278"/>
      <point x="198.012" y="511.603"/>
      <point x="307" y="510" type="curve" smooth="yes"/>
      <point x="344.435" y="509.45"/>
      <point x="375.145" y="499.101"/>
      <point x="399.538" y="482.327" type="curve"/>
      <point x="340" y="301.325" type="line"/>
      <point x="324.03" y="317.93"/>
      <point x="303.911" y="332"/>
      <point x="284.576" y="332" type="curve" smooth="yes"/>
      <point x="250" y="332"/>
      <point x="218.054" y="298.005"/>
      <point x="227" y="197" type="curve"/>
    </contour>
    <contour>
      <point x="276" y="699" type="line"/>
      <point x="247" y="629"/>
      <point x="217" y="556"/>
      <point x="217" y="463" type="curve" smooth="yes"/>
      <point x="217" y="397"/>
      <point x="248" y="176.22"/>
      <point x="275" y="0" type="curve"/>
      <point x="55" y="0" type="line"/>
      <point x="48.46" y="176.22"/>
      <point x="37" y="347.334"/>
      <point x="37" y="473" type="curve" smooth="yes"/>
      <point x="37" y="545.375"/>
      <point x="46" y="618"/>
      <point x="55" y="699" type="curve"/>
    </contour>
  </outline>
</glyph>
<glyph name="u" format="2">
  <advance width="720"/>
  <unicode hex="0075"/>
  <outline>
    <contour>
      <point x="690" y="0" type="line"/>
      <point x="673" y="361"/>
      <point x="625" y="500"/>
      <point x="463" y="500" type="curve" smooth="yes"/>
      <point x="462" y="500" type="line" smooth="yes"/>
      <point x="337" y="500"/>
      <point x="288.503" y="398.357"/>
      <point x="276" y="285" type="curve" smooth="yes"/>
      <point x="266" y="194.334"/>
      <point x="256.051" y="162.258"/>
      <point x="232.027" y="162.517" type="curve" smooth="yes"/>
      <point x="197.1" y="162.894"/>
      <point x="207.31" y="236.2"/>
      <point x="211" y="259" type="curve" smooth="yes"/>
      <point x="250" y="500" type="line"/>
      <point x="30" y="500" type="line"/>
      <point x="30" y="419.65"/>
      <point x="30" y="338.002"/>
      <point x="30" y="259" type="curve" smooth="yes"/>
      <point x="30" y="127"/>
      <point x="64" y="-8"/>
      <point x="241" y="-8" type="curve" smooth="yes"/>
      <point x="370" y="-8"/>
      <point x="434.72" y="90.3646"/>
      <point x="447.404" y="210.928" type="curve" smooth="yes"/>
      <point x="454.221" y="275.72"/>
      <point x="455" y="323"/>
      <point x="474" y="323" type="curve" smooth="yes"/>
      <point x="494" y="323"/>
      <point x="497" y="257"/>
      <point x="470" y="0" type="curve"/>
    </contour>
  </outline>
</glyph>
<glyph name="v" format="2">
  <advance width="722"/>
  <unicode hex="0076"/>
  <outline>
    <contour>
      <point x="20" y="216" type="curve"/>
      <point x="220" y="216" type="line"/>
      <point x="218" y="262.031"/>
      <point x="210.768" y="350.669"/>
      <point x="218.788" y="350.638" type="curve" smooth="yes"/>
      <point x="223.788" y="350.618"/>
      <point x="233.254" y="313.746"/>
      <point x="245.742" y="269.607" type="curve" smooth="yes"/>
      <point x="295.795" y="92.6892"/>
      <point x="327.16" y="-5"/>
      <point x="428" y="-5" type="curve"/>
      <point x="427.61" y="-5" type="line"/>
      <point x="528.845" y="-5"/>
      <point x="556.902" y="94.3754"/>
      <point x="619.585" y="269.607" type="curve" smooth="yes"/>
      <point x="702" y="500" type="line"/>
      <point x="501" y="500" type="line"/>
      <point x="462.181" y="292.174" type="line" smooth="yes"/>
      <point x="452.032" y="237.839"/>
      <point x="443.834" y="169.941"/>
      <point x="435.203" y="169.941" type="curve" smooth="yes"/>
      <point x="426.062" y="169.941"/>
      <point x="416.856" y="236.264"/>
      <point x="392.628" y="327.552" type="curve" smooth="yes"/>
      <point x="350.048" y="487.979"/>
      <point x="281" y="510"/>
      <point x="222" y="510" type="curve" smooth="yes"/>
      <point x="221" y="510" type="line" smooth="yes"/>
      <point x="94" y="510"/>
      <point x="20" y="347.178"/>
    </contour>
  </outline>
</glyph>
<glyph name="w" format="2">
  <advance width="882"/>
  <unicode hex="0077"/>
  <outline>
    <contour>
      <point x="-10" y="216" type="curve"/>
      <point x="180.425" y="216" type="line"/>
      <point x="173.544" y="301.723"/>
      <point x="169.04" y="356.638"/>
      <point x="176.788" y="356.638" type="curve" smooth="yes"/>
      <point x="183.154" y="356.638"/>
      <point x="184.067" y="343.166"/>
      <point x="199.483" y="269.607" type="curve" smooth="yes"/>
      <point x="241.522" y="69.004"/>
      <point x="269.39" y="-5"/>
      <point x="358.6" y="-5" type="curve"/>
      <point x="358.61" y="-5" type="line"/>
      <point x="433.755" y="-5"/>
      <point x="471.083" y="52.9201"/>
      <point x="494.585" y="165.607" type="curve" smooth="yes"/>
      <point x="509.068" y="235.047" type="line"/>
      <point x="522.635" y="166.024" type="line" smooth="yes"/>
      <point x="544.833" y="53.0917"/>
      <point x="581.942" y="-5"/>
      <point x="656.796" y="-5" type="curve"/>
      <point x="656.806" y="-5" type="line"/>
      <point x="746.845" y="-5"/>
      <point x="775.944" y="69.5668"/>
      <point x="820.585" y="269.607" type="curve" smooth="yes"/>
      <point x="872" y="500" type="line"/>
      <point x="661" y="500" type="line"/>
      <point x="661.855" y="266.912" type="line" smooth="yes"/>
      <point x="661.991" y="229.852"/>
      <point x="661.454" y="192.273"/>
      <point x="656.407" y="192.353" type="curve" smooth="yes"/>
      <point x="651.048" y="192.439"/>
      <point x="645.544" y="241.38"/>
      <point x="641.108" y="277.77" type="curve" smooth="yes"/>
      <point x="614.018" y="500" type="line"/>
      <point x="402" y="500" type="line"/>
      <point x="374.96" y="277.77" type="line" smooth="yes"/>
      <point x="370.517" y="241.261"/>
      <point x="366.507" y="192.359"/>
      <point x="361.66" y="192.353" type="curve" smooth="yes"/>
      <point x="357.49" y="192.348"/>
      <point x="357.644" y="230.729"/>
      <point x="348.671" y="328.214" type="curve" smooth="yes"/>
      <point x="338.053" y="443.574"/>
      <point x="288" y="510"/>
      <point x="193" y="510" type="curve"/>
      <point x="193" y="510" type="line"/>
      <point x="72.3445" y="510.308"/>
      <point x="10" y="387.178"/>
    </contour>
  </outline>
</glyph>
<glyph name="x" format="2">
  <advance width="683"/>
  <unicode hex="0078"/>
  <outline>
    <contour>
      <point x="20.358" y="285.425" type="curve"/>
      <point x="210.358" y="285.425" type="line"/>
      <point x="210.358" y="294.464"/>
      <point x="210.358" y="331.494"/>
      <point x="224.359" y="331.381" type="curve" smooth="yes"/>
      <point x="236.634" y="331.282"/>
      <point x="250.875" y="292.029"/>
      <point x="263.718" y="257.433" type="curve"/>
      <point x="41" y="1" type="line"/>
      <point x="266" y="1" type="line"/>
      <point x="336.358" y="151.457" type="line"/>
      <point x="415.901" y="5.82536"/>
      <point x="470.395" y="-4.99579"/>
      <point x="511.395" y="-5" type="curve"/>
      <point x="511.395" y="-5" type="line"/>
      <point x="644.39" y="-4.9958"/>
      <point x="662.797" y="181.884"/>
      <point x="662.439" y="215.271" type="curve"/>
      <point x="472.439" y="215.271" type="line"/>
      <point x="472.439" y="206.232"/>
      <point x="474.048" y="169.64"/>
      <point x="461.048" y="169.567" type="curve" smooth="yes"/>
      <point x="448.772" y="169.497"/>
      <point x="432.53" y="208.577"/>
      <point x="419.688" y="243.567" type="curve"/>
      <point x="641.797" y="499.696" type="line"/>
      <point x="416.797" y="499.696" type="line"/>
      <point x="345.699" y="351.847" type="line"/>
      <point x="266.271" y="497.044"/>
      <point x="213.011" y="506"/>
      <point x="172.011" y="506" type="curve"/>
      <point x="172.011" y="506" type="line"/>
      <point x="49.3634" y="506"/>
      <point x="20.358" y="318.603"/>
    </contour>
  </outline>
</glyph>
<glyph name="y" format="2">
  <advance width="704"/>
  <unicode hex="0079"/>
  <outline>
    <contour>
      <point x="21" y="216" type="curve"/>
      <point x="222.425" y="216.189" type="line"/>
      <point x="219.557" y="261.487"/>
      <point x="212.768" y="350.587"/>
      <point x="220.788" y="350.638" type="curve" smooth="yes"/>
      <point x="225.788" y="350.669"/>
      <point x="238.319" y="325.318"/>
      <point x="246.31" y="252.943" type="curve" smooth="yes"/>
      <point x="265.754" y="76.8379"/>
      <point x="288.39" y="-0.309902"/>
      <point x="369" y="6.11655" type="curve"/>
      <point x="356.685" y="-37.4553"/>
      <point x="335" y="-80"/>
      <point x="263.983" y="-80" type="curve" smooth="yes"/>
      <point x="208.983" y="-80"/>
      <point x="134.055" y="-38.7564"/>
      <point x="98.3274" y="-5.13652" type="curve"/>
      <point x="97.8401" y="-206" type="line"/>
      <point x="160.493" y="-237.817"/>
      <point x="201.824" y="-250"/>
      <point x="257.983" y="-250" type="curve" smooth="yes"/>
      <point x="389.715" y="-250"/>
      <point x="466.724" y="-159.58"/>
      <point x="519.292" y="0" type="curve" smooth="yes"/>
      <point x="684" y="500" type="line"/>
      <point x="475" y="500" type="line"/>
      <point x="438.22" y="269.815" type="line" smooth="yes"/>
      <point x="429.361" y="214.368"/>
      <point x="424.542" y="158.739"/>
      <point x="418.212" y="158.976" type="curve" smooth="yes"/>
      <point x="410.901" y="159.25"/>
      <point x="408.646" y="210.991"/>
      <point x="402.399" y="273.137" type="curve" smooth="yes"/>
      <point x="384.179" y="454.394"/>
      <point x="307.783" y="509.094"/>
      <point x="223" y="510" type="curve"/>
      <point x="223" y="510" type="line"/>
      <point x="76.3445" y="509.888"/>
      <point x="20.6152" y="346.467"/>
    </contour>
  </outline>
</glyph>
<glyph name="z" format="2">
  <advance width="431"/>
  <unicode hex="007A"/>
  <outline>
    <contour>
      <point x="241" y="500.021" type="line" smooth="yes"/>
      <point x="345" y="500.032"/>
      <point x="436.963" y="450.15"/>
      <point x="309.782" y="270.804" type="curve" smooth="yes"/>
      <point x="247.655" y="183.195"/>
      <point x="217" y="148"/>
      <point x="236" y="148" type="curve" smooth="yes"/>
      <point x="250" y="148"/>
      <point x="327.03" y="187"/>
      <point x="396" y="220" type="curve"/>
      <point x="396" y="0" type="line"/>
      <point x="162.037" y="0" type="line" smooth="yes"/>
      <point x="-13" y="0"/>
      <point x="19.1701" y="126.416"/>
      <point x="105" y="242" type="curve" smooth="yes"/>
      <point x="159.173" y="314.953"/>
      <point x="199" y="351.625"/>
      <point x="178" y="351.625" type="curve" smooth="yes"/>
      <point x="165" y="351.625"/>
      <point x="109.97" y="318.582"/>
      <point x="39" y="280" type="curve"/>
      <point x="39" y="500" type="line"/>
    </contour>
  </outline>
</glyph>
<glyph name="bar" format="2">
  <advance width="450"/>
  <unicode hex="007C"/>
  <outline>
    <contour>
      <point x="120" y="750" type="line"/>
      <point x="120" y="-250" type="line"/>
      <point x="300" y="-250" type="line"/>
      <point x="330" y="750" type="line"/>
    </contour>
  </outline>
</glyph>
<glyph name="asciitilde" format="2">
  <advance width="360"/>
  <unicode hex="007E"/>
  <outline>
    <contour>
      <point x="50" y="143" type="line"/>
      <point x="74.75" y="161.563"/>
      <point x="96.7997" y="185.229"/>
      <point x="125" y="184.101" type="curve" smooth="yes"/>
      <point x="161.59" y="182.637"/>
      <point x="188.411" y="137.485"/>
      <point x="225" y="136" type="curve" smooth="yes"/>
      <point x="253.184" y="134.856"/>
      <point x="275.25" y="157.47"/>
      <point x="300" y="177" type="curve"/>
      <point x="300" y="330.318" type="line"/>
      <point x="275.25" y="309.788"/>
      <point x="253.184" y="288.192"/>
      <point x="225" y="289.318" type="curve" smooth="yes"/>
      <point x="188.371" y="290.782"/>
      <point x="161.45" y="335.853"/>
      <point x="124.821" y="337.318" type="curve" smooth="yes"/>
      <point x="96.6884" y="338.443"/>
      <point x="74.6909" y="314.848"/>
      <point x="50" y="296.318" type="curve"/>
    </contour>
  </outline>
</glyph>
<glyph name="exclamdown" format="2">
  <advance width="406"/>
  <unicode hex="00A1"/>
  <outline>
    <contour>
      <point x="320.665" y="319.665" type="line"/>
      <point x="320.665" y="-200.335" type="line"/>
      <point x="100.665" y="-200.335" type="line"/>
      <point x="140.665" y="319.665" type="line"/>
    </contour>
    <contour>
      <point x="172.665" y="509.665" type="curve" smooth="yes"/>
      <point x="142.33" y="479.33"/>
      <point x="142.33" y="410"/>
      <point x="172.665" y="379.665" type="curve" smooth="yes"/>
      <point x="203" y="349.33"/>
      <point x="272.33" y="349.33"/>
      <point x="302.665" y="379.665" type="curve" smooth="yes"/>
      <point x="333" y="410"/>
      <point x="333" y="479.33"/>
      <point x="302.665" y="509.665" type="curve" smooth="yes"/>
      <point x="272.33" y="540"/>
      <point x="203" y="540"/>
    </contour>
  </outline>
</glyph>
<glyph name="dieresis" format="2">
  <advance width="426"/>
  <unicode hex="00A8"/>
  <outline>
    <contour>
      <point x="173" y="730" type="curve" smooth="yes"/>
      <point x="203.335" y="760.335"/>
      <point x="203.335" y="829.665"/>
      <point x="173" y="860" type="curve" smooth="yes"/>
      <point x="142.665" y="890.335"/>
      <point x="73.3349" y="890.335"/>
      <point x="43" y="860" type="curve" smooth="yes"/>
      <point x="12.6651" y="829.665"/>
      <point x="12.6651" y="760.335"/>
      <point x="43" y="730" type="curve" smooth="yes"/>
      <point x="73.3349" y="699.665"/>
      <point x="142.665" y="699.665"/>
    </contour>
    <contour>
      <point x="383" y="730" type="curve" smooth="yes"/>
      <point x="413.335" y="760.335"/>
      <point x="413.335" y="829.665"/>
      <point x="383" y="860" type="curve" smooth="yes"/>
      <point x="352.665" y="890.335"/>
      <point x="283.335" y="890.335"/>
      <point x="253" y="860" type="curve" smooth="yes"/>
      <point x="222.665" y="829.665"/>
      <point x="222.665" y="760.335"/>
      <point x="253" y="730" type="curve" smooth="yes"/>
      <point x="283.335" y="699.665"/>
      <point x="352.665" y="699.665"/>
    </contour>
  </outline>
</glyph>
<glyph name="plusminus" format="2">
  <advance width="511"/>
  <unicode hex="00B1"/>
  <outline>
    <contour>
      <point x="335" y="100" type="line"/>
      <point x="155" y="100" type="line"/>
      <point x="155" y="499.934" type="line"/>
      <point x="375" y="499.934" type="line"/>
    </contour>
    <contour>
      <point x="80.5" y="228" type="line"/>
      <point x="80.5" y="408" type="line"/>
      <point x="430.442" y="408" type="line"/>
      <point x="430.442" y="188" type="line"/>
    </contour>
    <contour>
      <point x="91" y="-123" type="line"/>
      <point x="91" y="57" type="line"/>
      <point x="421" y="57" type="line"/>
      <point x="421" y="-163" type="line"/>
    </contour>
  </outline>
</glyph>
<glyph name="acute" format="2">
  <advance width="307"/>
  <unicode hex="00B4"/>
  <outline>
    <contour>
      <point x="258" y="640" type="curve" smooth="yes"/>
      <point x="269.858" y="670.972"/>
      <point x="273.7" y="717"/>
      <point x="277" y="750" type="curve"/>
      <point x="67" y="750" type="line"/>
      <point x="67" y="720.3"/>
      <point x="64.1436" y="679.058"/>
      <point x="58" y="650" type="curve" smooth="yes"/>
      <point x="51.6718" y="620.069"/>
      <point x="42.21" y="593.05"/>
      <point x="30" y="565" type="curve"/>
      <point x="210" y="565" type="line"/>
      <point x="228.81" y="589.75"/>
      <point x="246.885" y="610.968"/>
    </contour>
  </outline>
</glyph>
<glyph name="periodcentered" format="2">
  <advance width="350"/>
  <unicode hex="00B7"/>
  <outline>
    <contour>
      <point x="245" y="185" type="curve" smooth="yes"/>
      <point x="277.668" y="217.668"/>
      <point x="277.668" y="292.332"/>
      <point x="245" y="325" type="curve" smooth="yes"/>
      <point x="212.332" y="357.668"/>
      <point x="137.668" y="357.668"/>
      <point x="105" y="325" type="curve" smooth="yes"/>
      <point x="72.3317" y="292.332"/>
      <point x="72.3317" y="217.668"/>
      <point x="105" y="185" type="curve" smooth="yes"/>
      <point x="137.668" y="152.332"/>
      <point x="212.332" y="152.332"/>
    </contour>
  </outline>
</glyph>
<glyph name="cedilla" format="2">
  <advance width="287"/>
  <unicode hex="00B8"/>
  <outline>
    <contour>
      <point x="249" y="-130" type="curve" smooth="yes"/>
      <point x="261.345" y="-92.2289"/>
      <point x="263.7" y="-39.6"/>
      <point x="267" y="0" type="curve"/>
      <point x="57" y="0" type="line"/>
      <point x="57" y="-36.3"/>
      <point x="55.4475" y="-84.2772"/>
      <point x="49" y="-120" type="curve" smooth="yes"/>
      <point x="43.0243" y="-153.109"/>
      <point x="32.21" y="-183.65"/>
      <point x="20" y="-215" type="curve"/>
      <point x="200" y="-215" type="line"/>
      <point x="218.81" y="-186.95"/>
      <point x="238.508" y="-162.102"/>
    </contour>
  </outline>
</glyph>
<glyph name="questiondown" format="2">
  <advance width="481"/>
  <unicode hex="00BF"/>
  <outline>
    <contour>
      <point x="400.053" y="319.665" type="line"/>
      <point x="400.053" y="162.066" type="line"/>
      <point x="342.253" y="95.004"/>
      <point x="269.801" y="39.2254"/>
      <point x="269.801" y="-14.1873" type="curve" smooth="yes"/>
      <point x="269.801" y="-66.0176"/>
      <point x="370.47" y="-11.4661"/>
      <point x="420.053" y="19.725" type="curve"/>
      <point x="420.053" y="-200.335" type="line"/>
      <point x="200.095" y="-200.335"/>
      <point x="80.0971" y="-191.335"/>
      <point x="80.0454" y="-59.3349" type="curve" smooth="yes"/>
      <point x="80.0104" y="29.9206"/>
      <point x="174.253" y="121.004"/>
      <point x="220.053" y="188.066" type="curve"/>
      <point x="220.053" y="319.664" type="line"/>
    </contour>
    <contour>
      <point x="246.063" y="509.665" type="curve" smooth="yes"/>
      <point x="215.728" y="479.33"/>
      <point x="215.728" y="410"/>
      <point x="246.063" y="379.665" type="curve" smooth="yes"/>
      <point x="276.398" y="349.33"/>
      <point x="345.728" y="349.33"/>
      <point x="376.063" y="379.665" type="curve" smooth="yes"/>
      <point x="406.398" y="410"/>
      <point x="406.398" y="479.33"/>
      <point x="376.063" y="509.665" type="curve" smooth="yes"/>
      <point x="345.728" y="540"/>
      <point x="276.398" y="540"/>
    </contour>
  </outline>
</glyph>
<glyph name="AE" format="2">
  <advance width="785"/>
  <unicode hex="00C6"/>
  <outline>
    <contour>
      <point x="291.533" y="700" type="line" smooth="yes"/>
      <point x="-0.483795" y="700"/>
      <point x="21.9663" y="454.048"/>
      <point x="21" y="0" type="curve"/>
      <point x="242" y="0" type="line"/>
      <point x="230" y="156" type="line"/>
      <point x="357" y="156" type="line"/>
      <point x="337" y="0" type="line"/>
      <point x="558" y="0" type="line"/>
      <point x="558.404" y="699.798" type="line"/>
      <point x="292.546" y="700" type="line"/>
    </contour>
    <contour>
      <point x="218" y="326" type="line"/>
      <point x="210" y="381.703"/>
      <point x="199" y="530"/>
      <point x="289" y="530" type="curve"/>
      <point x="373" y="529" type="line"/>
      <point x="373" y="326" type="line"/>
    </contour>
    <contour>
      <point x="373" y="700" type="line"/>
      <point x="373" y="622" type="line"/>
      <point x="373" y="78" type="line"/>
      <point x="373" y="0" type="line"/>
      <point x="753" y="0" type="line"/>
      <point x="753" y="220" type="line"/>
      <point x="611.057" y="176.075" type="line" smooth="yes"/>
      <point x="570.934" y="163.658"/>
      <point x="557.064" y="179.726"/>
      <point x="557.548" y="206.298" type="curve" smooth="yes"/>
      <point x="558.038" y="233.256" type="line" smooth="yes"/>
      <point x="558.517" y="259.583"/>
      <point x="564.406" y="286.259"/>
      <point x="615.057" y="263.925" type="curve"/>
      <point x="683" y="232" type="line"/>
      <point x="683" y="442" type="line"/>
      <point x="558.845" y="442" type="line"/>
      <point x="558.218" y="472.166" type="line" smooth="yes"/>
      <point x="557.242" y="519.037"/>
      <point x="571.117" y="535.919"/>
      <point x="611.057" y="522.925" type="curve" smooth="yes"/>
      <point x="743" y="480" type="line"/>
      <point x="743" y="700" type="line"/>
    </contour>
  </outline>
</glyph>
<glyph name="Oslash" format="2">
  <advance width="610"/>
  <unicode hex="00D8"/>
  <outline>
    <component base="O"/>
    <contour>
      <point x="168.826" y="-50" type="line"/>
      <point x="336.142" y="750" type="line"/>
      <point x="457.142" y="750" type="line"/>
      <point x="249.826" y="-50" type="line"/>
    </contour>
  </outline>
</glyph>
<glyph name="Thorn" format="2">
  <advance width="622"/>
  <unicode hex="00DE"/>
  <outline>
    <contour>
      <point x="365.049" y="99.1654" type="curve" smooth="yes"/>
      <point x="225.168" y="99.3308" type="line"/>
      <point x="216" y="0" type="line"/>
      <point x="36" y="0" type="line"/>
      <point x="35.8838" y="700" type="line"/>
      <point x="256.314" y="700" type="line"/>
      <point x="249.809" y="594.923" type="line"/>
      <point x="319" y="594.867" type="line" smooth="yes"/>
      <point x="462" y="594.753"/>
      <point x="585" y="518"/>
      <point x="585" y="355" type="curve" smooth="yes"/>
      <point x="585" y="270"/>
      <point x="533.049" y="98.9668"/>
    </contour>
    <contour>
      <point x="230.961" y="228.356" type="line"/>
      <point x="297.103" y="228" type="line" smooth="yes"/>
      <point x="374.111" y="227.586"/>
      <point x="405.836" y="285"/>
      <point x="405.979" y="355" type="curve" smooth="yes"/>
      <point x="406.143" y="435"/>
      <point x="350" y="464.955"/>
      <point x="292" y="464.927" type="curve" smooth="yes"/>
      <point x="245" y="464.905" type="line"/>
    </contour>
  </outline>
</glyph>
<glyph name="ae" format="2">
  <advance width="948"/>
  <unicode hex="00E6"/>
  <outline>
    <contour>
      <point x="692" y="280" type="curve"/>
      <point x="492" y="280" type="line"/>
      <point x="488.438" y="199.021"/>
      <point x="489.454" y="163.525"/>
      <point x="476.454" y="163.525" type="curve" smooth="yes"/>
      <point x="464.771" y="163.525"/>
      <point x="463.031" y="194.41"/>
      <point x="453.392" y="284" type="curve" smooth="yes"/>
      <point x="436.185" y="443.925"/>
      <point x="352" y="505"/>
      <point x="246" y="505" type="curve" smooth="yes"/>
      <point x="100" y="505"/>
      <point x="32" y="372"/>
      <point x="32" y="250" type="curve" smooth="yes"/>
      <point x="32" y="150.998"/>
      <point x="72" y="0"/>
      <point x="232" y="0" type="curve" smooth="yes"/>
      <point x="338" y="0"/>
      <point x="409.667" y="107.469"/>
      <point x="420.667" y="158.469" type="curve"/>
      <point x="395.439" y="389.845" type="line"/>
      <point x="334.448" y="259.298"/>
      <point x="312.917" y="171.361"/>
      <point x="258" y="171.133" type="curve" smooth="yes"/>
      <point x="226.945" y="171.005"/>
      <point x="202" y="201.004"/>
      <point x="202" y="267.015" type="curve" smooth="yes"/>
      <point x="202" y="318"/>
      <point x="220.405" y="351.859"/>
      <point x="243.405" y="351.859" type="curve" smooth="yes"/>
      <point x="271.405" y="351.859"/>
      <point x="281.784" y="308.473"/>
      <point x="289.991" y="264.827" type="curve" smooth="yes"/>
      <point x="318.598" y="112.704"/>
      <point x="343" y="0"/>
      <point x="478" y="0" type="curve"/>
      <point x="478" y="0" type="line"/>
      <point x="627" y="0"/>
      <point x="654.17" y="141.059"/>
    </contour>
    <contour>
      <point x="903.545" y="46" type="curve"/>
      <point x="857" y="167" type="line"/>
      <point x="816.542" y="143.851"/>
      <point x="780.723" y="138.463"/>
      <point x="762.019" y="138.556" type="curve" smooth="yes"/>
      <point x="698.969" y="138.87"/>
      <point x="669" y="188"/>
      <point x="669" y="271.015" type="curve" smooth="yes"/>
      <point x="669" y="334.796"/>
      <point x="689.422" y="352.15"/>
      <point x="711" y="353" type="curve"/>
      <point x="710" y="353" type="line"/>
      <point x="728" y="351.726"/>
      <point x="745" y="346"/>
      <point x="751" y="309.257" type="curve"/>
      <point x="504" y="309" type="line"/>
      <point x="504" y="199" type="line"/>
      <point x="928" y="199" type="line"/>
      <point x="928" y="261" type="line" smooth="yes"/>
      <point x="928" y="347"/>
      <point x="892" y="510.04"/>
      <point x="717" y="510.04" type="curve" smooth="yes"/>
      <point x="716" y="510.04" type="line" smooth="yes"/>
      <point x="538.729" y="510.04"/>
      <point x="491" y="353"/>
      <point x="491" y="261" type="curve" smooth="yes"/>
      <point x="491" y="139.999"/>
      <point x="542.815" y="-4"/>
      <point x="730.424" y="-4" type="curve" smooth="yes"/>
      <point x="787" y="-4"/>
      <point x="831.352" y="6.19996"/>
    </contour>
  </outline>
</glyph>
<glyph name="divide" format="2">
  <advance width="350"/>
  <unicode hex="00F7"/>
  <outline>
    <component base="minus" yOffset="53"/>
    <contour>
      <point x="235" y="401" type="curve" smooth="yes"/>
      <point x="265.335" y="431.335"/>
      <point x="265.335" y="500.665"/>
      <point x="235" y="531" type="curve" smooth="yes"/>
      <point x="204.665" y="561.335"/>
      <point x="135.335" y="561.335"/>
      <point x="105" y="531" type="curve" smooth="yes"/>
      <point x="74.6651" y="500.665"/>
      <point x="74.6651" y="431.335"/>
      <point x="105" y="401" type="curve" smooth="yes"/>
      <point x="135.335" y="370.665"/>
      <point x="204.665" y="370.665"/>
    </contour>
    <contour>
      <point x="235" y="-10" type="curve" smooth="yes"/>
      <point x="265.335" y="20.3349"/>
      <point x="265.335" y="89.6651"/>
      <point x="235" y="120" type="curve" smooth="yes"/>
      <point x="204.665" y="150.335"/>
      <point x="135.335" y="150.335"/>
      <point x="105" y="120" type="curve" smooth="yes"/>
      <point x="74.6651" y="89.6651"/>
      <point x="74.6651" y="20.3349"/>
      <point x="105" y="-10" type="curve" smooth="yes"/>
      <point x="135.335" y="-40.3349"/>
      <point x="204.665" y="-40.3349"/>
    </contour>
  </outline>
</glyph>
<glyph name="oslash" format="2">
  <advance width="526"/>
  <unicode hex="00F8"/>
  <outline>
    <component base="o"/>
    <contour>
      <point x="141.826" y="-110" type="line"/>
      <point x="281.174" y="590" type="line"/>
      <point x="402.174" y="590" type="line"/>
      <point x="222.826" y="-110" type="line"/>
    </contour>
  </outline>
</glyph>
<glyph name="thorn" format="2">
  <advance width="725"/>
  <unicode hex="00FE"/>
  <outline>
    <contour>
      <point x="37" y="750" type="line"/>
      <point x="60.8302" y="-108.941"/>
      <point x="88" y="-250"/>
      <point x="237" y="-250" type="curve"/>
      <point x="237" y="-250" type="line"/>
      <point x="372" y="-250"/>
      <point x="396.402" y="-137.296"/>
      <point x="435.009" y="264.827" type="curve" smooth="yes"/>
      <point x="439.253" y="309.035"/>
      <point x="453.595" y="351.859"/>
      <point x="481.595" y="351.859" type="curve" smooth="yes"/>
      <point x="504.595" y="351.859"/>
      <point x="523" y="318"/>
      <point x="523" y="267.015" type="curve" smooth="yes"/>
      <point x="523" y="201.004"/>
      <point x="498.055" y="171.005"/>
      <point x="467" y="171.133" type="curve" smooth="yes"/>
      <point x="412.083" y="171.361"/>
      <point x="390.552" y="259.298"/>
      <point x="329.561" y="389.845" type="curve"/>
      <point x="304.333" y="158.469" type="line"/>
      <point x="315.333" y="107.469"/>
      <point x="387" y="0"/>
      <point x="493" y="0" type="curve" smooth="yes"/>
      <point x="653" y="0"/>
      <point x="693" y="150.998"/>
      <point x="693" y="250" type="curve" smooth="yes"/>
      <point x="693" y="372"/>
      <point x="625" y="505"/>
      <point x="479" y="505" type="curve" smooth="yes"/>
      <point x="373" y="505"/>
      <point x="282.308" y="444.492"/>
      <point x="271.608" y="284" type="curve" smooth="yes"/>
      <point x="248.969" y="-55.5895"/>
      <point x="250.229" y="-86.4746"/>
      <point x="238.546" y="-86.4746" type="curve" smooth="yes"/>
      <point x="225.546" y="-86.4746"/>
      <point x="230.562" y="-50.9786"/>
      <point x="237" y="750" type="curve"/>
    </contour>
  </outline>
</glyph>
<glyph name="aogonek" format="2">
  <advance width="719"/>
  <unicode hex="0105"/>
  <outline>
    <component base="a"/>
    <contour>
      <point x="396.012" y="19.8616" type="line"/>
      <point x="376.784" y="-35.6441" type="line" smooth="yes"/>
      <point x="348.142" y="-118.328"/>
      <point x="394.901" y="-197.801"/>
      <point x="519" y="-176" type="curve" smooth="yes"/>
      <point x="593" y="-163" type="line"/>
      <point x="593" y="-13" type="line"/>
      <point x="540.308" y="-40.3071" type="line" smooth="yes"/>
      <point x="526.804" y="-47.3055"/>
      <point x="523.605" y="-39.0861"/>
      <point x="536.361" y="-22.1929" type="curve" smooth="yes"/>
      <point x="590.012" y="48.8616" type="line"/>
    </contour>
  </outline>
</glyph>
<glyph name="dotlessi" format="2">
  <advance width="294"/>
  <unicode hex="0131"/>
  <outline>
    <contour>
      <point x="263" y="500" type="line"/>
      <point x="237" y="409"/>
      <point x="214.489" y="346"/>
      <point x="214" y="284" type="curve" smooth="yes"/>
      <point x="213.337" y="200"/>
      <point x="236" y="124"/>
      <point x="264" y="0" type="curve"/>
      <point x="44" y="0" type="line"/>
      <point x="40" y="93.72"/>
      <point x="33.6199" y="190.109"/>
      <point x="34" y="284" type="curve" smooth="yes"/>
      <point x="34.293" y="356.374"/>
      <point x="37" y="428.72"/>
      <point x="42" y="500" type="curve"/>
    </contour>
  </outline>
</glyph>
<glyph name="jcircumflex" format="2">
  <advance width="458"/>
  <unicode hex="0135"/>
  <outline>
    <component base="circumflex" xOffset="112.67" yOffset="-50"/>
    <contour>
      <point x="30" y="-186" type="curve"/>
      <point x="30" y="35.2181" type="line"/>
      <point x="55.7277" y="1.59819"/>
      <point x="116.056" y="-67.5568"/>
      <point x="161.073" y="-66.8646" type="curve" smooth="yes"/>
      <point x="235.003" y="-65.7278"/>
      <point x="197.843" y="49.9596"/>
      <point x="199" y="284.349" type="curve" smooth="yes"/>
      <point x="199.356" y="356.374"/>
      <point x="202" y="428.72"/>
      <point x="207" y="500" type="curve"/>
      <point x="428" y="500" type="line"/>
      <point x="402" y="409"/>
      <point x="379" y="346"/>
      <point x="379" y="284" type="curve" smooth="yes"/>
      <point x="379" y="54.3297"/>
      <point x="469" y="-249.974"/>
      <point x="229.143" y="-249.974" type="curve" smooth="yes"/>
      <point x="152.051" y="-249.974"/>
      <point x="72.6647" y="-217.816"/>
    </contour>
  </outline>
</glyph>
<glyph name="Tcedilla" format="2">
  <advance width="460"/>
  <unicode hex="0162"/>
  <outline>
    <component base="T"/>
    <contour>
      <point x="322" y="-120" type="curve" smooth="yes"/>
      <point x="334.345" y="-82.2289"/>
      <point x="336.7" y="-39.6"/>
      <point x="340" y="0" type="curve"/>
      <point x="120" y="0" type="line"/>
      <point x="120" y="-36.3"/>
      <point x="118.447" y="-74.2772"/>
      <point x="112" y="-110" type="curve" smooth="yes"/>
      <point x="106.024" y="-143.109"/>
      <point x="95.21" y="-173.65"/>
      <point x="83" y="-205" type="curve"/>
      <point x="273" y="-205" type="line"/>
      <point x="291.81" y="-176.95"/>
      <point x="311.508" y="-152.102"/>
    </contour>
  </outline>
</glyph>
<glyph name="tcedilla" format="2">
  <advance width="414"/>
  <unicode hex="0163"/>
  <outline>
    <component base="t" xOffset="19"/>
    <contour>
      <point x="276" y="-120" type="curve" smooth="yes"/>
      <point x="288.345" y="-82.2289"/>
      <point x="290.7" y="-39.6"/>
      <point x="294" y="0" type="curve"/>
      <point x="74" y="0" type="line"/>
      <point x="74" y="-36.3"/>
      <point x="72.4475" y="-74.2772"/>
      <point x="66" y="-110" type="curve" smooth="yes"/>
      <point x="60.0243" y="-143.109"/>
      <point x="49.21" y="-173.65"/>
      <point x="37" y="-205" type="curve"/>
      <point x="227" y="-205" type="line"/>
      <point x="245.81" y="-176.95"/>
      <point x="265.508" y="-152.102"/>
    </contour>
  </outline>
</glyph>
<glyph name="breve" format="2">
  <advance width="305"/>
  <unicode hex="02D8"/>
  <outline>
    <contour>
      <point x="20" y="749.5" type="line"/>
      <point x="20.0857" y="714.665"/>
      <point x="37.7908" y="607.104"/>
      <point x="152.5" y="607" type="curve" smooth="yes"/>
      <point x="266.898" y="606.896"/>
      <point x="284.665" y="715.789"/>
      <point x="285" y="750.5" type="curve"/>
      <point x="164.708" y="749.994" type="line"/>
      <point x="164.832" y="746.937"/>
      <point x="163.993" y="736.599"/>
      <point x="152.933" y="736.599" type="curve" smooth="yes"/>
      <point x="140.866" y="736.599"/>
      <point x="139.911" y="746.813"/>
      <point x="140.146" y="750.232" type="curve"/>
    </contour>
  </outline>
</glyph>
<glyph name="dotaccent" format="2">
  <advance width="216"/>
  <unicode hex="02D9"/>
  <outline>
    <contour>
      <point x="173" y="620" type="curve" smooth="yes"/>
      <point x="203.335" y="650.335"/>
      <point x="203.335" y="719.665"/>
      <point x="173" y="750" type="curve" smooth="yes"/>
      <point x="142.665" y="780.335"/>
      <point x="73.3349" y="780.335"/>
      <point x="43" y="750" type="curve" smooth="yes"/>
      <point x="12.6651" y="719.665"/>
      <point x="12.6651" y="650.335"/>
      <point x="43" y="620" type="curve" smooth="yes"/>
      <point x="73.3349" y="589.665"/>
      <point x="142.665" y="589.665"/>
    </contour>
  </outline>
</glyph>
<glyph name="ring" format="2">
  <advance width="228"/>
  <unicode hex="02DA"/>
  <outline>
    <contour>
      <point x="20" y="656.75" type="curve" smooth="yes"/>
      <point x="20" y="605.5"/>
      <point x="62.5" y="563"/>
      <point x="113.75" y="563" type="curve" smooth="yes"/>
      <point x="165" y="563"/>
      <point x="207.5" y="605.5"/>
      <point x="207.5" y="656.75" type="curve" smooth="yes"/>
      <point x="207.5" y="709.05"/>
      <point x="165.55" y="750.5"/>
      <point x="113.75" y="750.5" type="curve" smooth="yes"/>
      <point x="62.5" y="750.5"/>
      <point x="20" y="708"/>
    </contour>
    <contour>
      <point x="99.9" y="657.85" type="curve" smooth="yes"/>
      <point x="99.9" y="666"/>
      <point x="106.7" y="672.8"/>
      <point x="114.85" y="672.8" type="curve" smooth="yes"/>
      <point x="123" y="672.8"/>
      <point x="129.8" y="666"/>
      <point x="129.8" y="657.85" type="curve" smooth="yes"/>
      <point x="129.8" y="649.7"/>
      <point x="123" y="642.9"/>
      <point x="114.85" y="642.9" type="curve" smooth="yes"/>
      <point x="106.7" y="642.9"/>
      <point x="99.9" y="649.7"/>
    </contour>
  </outline>
</glyph>
<glyph name="tilde" format="2">
  <advance width="290"/>
  <unicode hex="02DC"/>
  <outline>
    <contour>
      <point x="20" y="583" type="line"/>
      <point x="44.75" y="601.563"/>
      <point x="66.7997" y="625.229"/>
      <point x="95" y="624.101" type="curve" smooth="yes"/>
      <point x="131.59" y="622.637"/>
      <point x="158.411" y="577.485"/>
      <point x="195" y="576" type="curve" smooth="yes"/>
      <point x="223.184" y="574.856"/>
      <point x="245.25" y="597.47"/>
      <point x="270" y="617" type="curve"/>
      <point x="270" y="770.318" type="line"/>
      <point x="245.25" y="749.788"/>
      <point x="223.184" y="728.192"/>
      <point x="195" y="729.318" type="curve" smooth="yes"/>
      <point x="158.371" y="730.782"/>
      <point x="131.45" y="775.853"/>
      <point x="94.8209" y="777.318" type="curve" smooth="yes"/>
      <point x="66.6884" y="778.443"/>
      <point x="44.6909" y="754.848"/>
      <point x="20" y="736.318" type="curve"/>
    </contour>
  </outline>
</glyph>
<glyph name="commaaccentcomb" format="2">
  <advance width="277"/>
  <unicode hex="0326"/>
  <outline>
    <contour>
      <point x="239" y="190" type="curve" smooth="yes"/>
      <point x="251.477" y="220.728"/>
      <point x="253.7" y="257"/>
      <point x="257" y="290" type="curve"/>
      <point x="57" y="290" type="line"/>
      <point x="57" y="260.3"/>
      <point x="55.4986" y="228.98"/>
      <point x="49" y="200" type="curve" smooth="yes"/>
      <point x="42.9613" y="173.071"/>
      <point x="32.21" y="149.75"/>
      <point x="20" y="125" type="curve"/>
      <point x="190" y="125" type="line"/>
      <point x="208.81" y="146.45"/>
      <point x="228.267" y="163.567"/>
    </contour>
  </outline>
</glyph>
<glyph name="emdash" format="2">
  <advance width="550"/>
  <unicode hex="2014"/>
  <outline>
    <contour>
      <point x="50" y="177" type="line"/>
      <point x="50" y="357" type="line"/>
      <point x="499.791" y="357" type="line"/>
      <point x="499.791" y="137" type="line"/>
    </contour>
  </outline>
</glyph>
<glyph name="quoteleft" format="2">
  <advance width="337"/>
  <unicode hex="2018"/>
  <outline>
    <contour>
      <point x="68" y="635" type="curve" smooth="yes"/>
      <point x="55.8398" y="586.904"/>
      <point x="53.3" y="534.5"/>
      <point x="50" y="485" type="curve"/>
      <point x="260" y="485" type="line"/>
      <point x="260" y="534.5"/>
      <point x="262.983" y="585.755"/>
      <point x="268" y="635" type="curve" smooth="yes"/>
      <point x="271.951" y="673.781"/>
      <point x="278.09" y="712.05"/>
      <point x="287" y="750" type="curve"/>
      <point x="117" y="750" type="line"/>
      <point x="98.19" y="712.05"/>
      <point x="78.3822" y="676.064"/>
    </contour>
  </outline>
</glyph>
<glyph name="quoteright" format="2">
  <advance width="337"/>
  <unicode hex="2019"/>
  <outline>
    <contour>
      <point x="269" y="600" type="curve" smooth="yes"/>
      <point x="281.16" y="648.096"/>
      <point x="283.7" y="700.5"/>
      <point x="287" y="750" type="curve"/>
      <point x="77" y="750" type="line"/>
      <point x="77" y="700.5"/>
      <point x="74.0174" y="649.245"/>
      <point x="69" y="600" type="curve" smooth="yes"/>
      <point x="65.0487" y="561.219"/>
      <point x="58.91" y="522.95"/>
      <point x="50" y="485" type="curve"/>
      <point x="220" y="485" type="line"/>
      <point x="238.81" y="522.95"/>
      <point x="258.618" y="558.936"/>
    </contour>
  </outline>
</glyph>
<glyph name="quotesinglbase" format="2">
  <advance width="327"/>
  <unicode hex="201A"/>
  <outline>
    <contour>
      <point x="269" y="0" type="curve" smooth="yes"/>
      <point x="281.16" y="48.0965"/>
      <point x="283.7" y="100.5"/>
      <point x="287" y="150" type="curve"/>
      <point x="77" y="150" type="line"/>
      <point x="77" y="100.5"/>
      <point x="74.0174" y="49.2451"/>
      <point x="69" y="0" type="curve" smooth="yes"/>
      <point x="65.0487" y="-38.7812"/>
      <point x="58.91" y="-77.05"/>
      <point x="50" y="-115" type="curve"/>
      <point x="220" y="-115" type="line"/>
      <point x="238.81" y="-77.05"/>
      <point x="258.618" y="-41.0637"/>
    </contour>
  </outline>
</glyph>
<glyph name="quotedblleft" format="2">
  <advance width="587"/>
  <unicode hex="201C"/>
  <outline>
    <contour>
      <point x="318" y="635" type="curve" smooth="yes"/>
      <point x="305.84" y="586.904"/>
      <point x="303.3" y="534.5"/>
      <point x="300" y="485" type="curve"/>
      <point x="510" y="485" type="line"/>
      <point x="510" y="534.5"/>
      <point x="512.983" y="585.755"/>
      <point x="518" y="635" type="curve" smooth="yes"/>
      <point x="521.951" y="673.781"/>
      <point x="528.09" y="712.05"/>
      <point x="537" y="750" type="curve"/>
      <point x="367" y="750" type="line"/>
      <point x="348.19" y="712.05"/>
      <point x="328.382" y="676.064"/>
    </contour>
    <contour>
      <point x="68" y="635" type="curve" smooth="yes"/>
      <point x="55.8398" y="586.904"/>
      <point x="53.3" y="534.5"/>
      <point x="50" y="485" type="curve"/>
      <point x="260" y="485" type="line"/>
      <point x="260" y="534.5"/>
      <point x="262.983" y="585.755"/>
      <point x="268" y="635" type="curve" smooth="yes"/>
      <point x="271.951" y="673.781"/>
      <point x="278.09" y="712.05"/>
      <point x="287" y="750" type="curve"/>
      <point x="117" y="750" type="line"/>
      <point x="98.19" y="712.05"/>
      <point x="78.3822" y="676.064"/>
    </contour>
  </outline>
</glyph>
<glyph name="quotedblright" format="2">
  <advance width="587"/>
  <unicode hex="201D"/>
  <outline>
    <contour>
      <point x="269" y="600" type="curve" smooth="yes"/>
      <point x="281.16" y="648.096"/>
      <point x="283.7" y="700.5"/>
      <point x="287" y="750" type="curve"/>
      <point x="77" y="750" type="line"/>
      <point x="77" y="700.5"/>
      <point x="74.0174" y="649.245"/>
      <point x="69" y="600" type="curve" smooth="yes"/>
      <point x="65.0487" y="561.219"/>
      <point x="58.91" y="522.95"/>
      <point x="50" y="485" type="curve"/>
      <point x="220" y="485" type="line"/>
      <point x="238.81" y="522.95"/>
      <point x="258.618" y="558.936"/>
    </contour>
    <contour>
      <point x="519" y="600" type="curve" smooth="yes"/>
      <point x="531.16" y="648.096"/>
      <point x="533.7" y="700.5"/>
      <point x="537" y="750" type="curve"/>
      <point x="327" y="750" type="line"/>
      <point x="327" y="700.5"/>
      <point x="324.017" y="649.245"/>
      <point x="319" y="600" type="curve" smooth="yes"/>
      <point x="315.049" y="561.219"/>
      <point x="308.91" y="522.95"/>
      <point x="300" y="485" type="curve"/>
      <point x="470" y="485" type="line"/>
      <point x="488.81" y="522.95"/>
      <point x="508.618" y="558.936"/>
    </contour>
  </outline>
</glyph>
<glyph name="quotedblbase" format="2">
  <advance width="587"/>
  <unicode hex="201E"/>
  <outline>
    <contour>
      <point x="269" y="0" type="curve" smooth="yes"/>
      <point x="281.16" y="48.0965"/>
      <point x="283.7" y="100.5"/>
      <point x="287" y="150" type="curve"/>
      <point x="77" y="150" type="line"/>
      <point x="77" y="100.5"/>
      <point x="74.0174" y="49.2451"/>
      <point x="69" y="0" type="curve" smooth="yes"/>
      <point x="65.0487" y="-38.7812"/>
      <point x="58.91" y="-77.05"/>
      <point x="50" y="-115" type="curve"/>
      <point x="220" y="-115" type="line"/>
      <point x="238.81" y="-77.05"/>
      <point x="258.618" y="-41.0637"/>
    </contour>
    <contour>
      <point x="519" y="0" type="curve" smooth="yes"/>
      <point x="531.16" y="48.0965"/>
      <point x="533.7" y="100.5"/>
      <point x="537" y="150" type="curve"/>
      <point x="327" y="150" type="line"/>
      <point x="327" y="100.5"/>
      <point x="324.017" y="49.2451"/>
      <point x="319" y="0" type="curve" smooth="yes"/>
      <point x="315.049" y="-38.7812"/>
      <point x="308.91" y="-77.05"/>
      <point x="300" y="-115" type="curve"/>
      <point x="470" y="-115" type="line"/>
      <point x="488.81" y="-77.05"/>
      <point x="508.618" y="-41.0637"/>
    </contour>
  </outline>
</glyph>
<glyph name="bullet" format="2">
  <advance width="538"/>
  <unicode hex="2022"/>
  <outline>
    <contour>
      <point x="379" y="172" type="curve" smooth="yes"/>
      <point x="430.336" y="223.336"/>
      <point x="430.336" y="340.664"/>
      <point x="379" y="392" type="curve" smooth="yes"/>
      <point x="327.664" y="443.336"/>
      <point x="210.336" y="443.336"/>
      <point x="159" y="392" type="curve" smooth="yes"/>
      <point x="107.664" y="340.664"/>
      <point x="107.664" y="223.336"/>
      <point x="159" y="172" type="curve" smooth="yes"/>
      <point x="210.336" y="120.664"/>
      <point x="327.664" y="120.664"/>
    </contour>
  </outline>
</glyph>
<glyph name="perthousand" format="2">
  <advance width="1168"/>
  <unicode hex="2030"/>
  <outline>
    <contour>
      <point x="155" y="0" type="line"/>
      <point x="494.348" y="700" type="line"/>
      <point x="717.348" y="700" type="line"/>
      <point x="338" y="0" type="line"/>
    </contour>
    <contour>
      <point x="183.505" y="699.987" type="curve"/>
      <point x="183.505" y="699.987" type="line"/>
      <point x="283.752" y="700"/>
      <point x="326.958" y="584.904"/>
      <point x="326.958" y="496.147" type="curve" smooth="yes"/>
      <point x="326.958" y="414.071"/>
      <point x="287.921" y="290.963"/>
      <point x="183.505" y="290.963" type="curve"/>
      <point x="183.505" y="290.963" type="line"/>
      <point x="79.816" y="290.957"/>
      <point x="40.0514" y="406.614"/>
      <point x="40.0514" y="495.371" type="curve" smooth="yes"/>
      <point x="40.0514" y="577.912"/>
      <point x="79.0882" y="699.987"/>
    </contour>
    <contour>
      <point x="182.266" y="582.494" type="line"/>
      <point x="168.755" y="582.494"/>
      <point x="160.866" y="535.085"/>
      <point x="160.866" y="500.738" type="curve" smooth="yes"/>
      <point x="160.866" y="456.397"/>
      <point x="167.841" y="408.163"/>
      <point x="182.016" y="407.001" type="curve"/>
      <point x="182.016" y="407.001" type="line"/>
      <point x="196.214" y="407.001"/>
      <point x="204.534" y="454.44"/>
      <point x="204.566" y="488.765" type="curve" smooth="yes"/>
      <point x="204.608" y="532.938"/>
      <point x="197.022" y="581.332"/>
      <point x="182.266" y="582.494" type="curve"/>
    </contour>
    <contour>
      <point x="672.505" y="408.987" type="curve"/>
      <point x="672.505" y="408.987" type="line"/>
      <point x="772.752" y="409"/>
      <point x="815.958" y="293.904"/>
      <point x="815.958" y="205.147" type="curve" smooth="yes"/>
      <point x="815.958" y="123.071"/>
      <point x="776.921" y="-0.0374222"/>
      <point x="672.505" y="-0.0374222" type="curve"/>
      <point x="672.505" y="-0.0374222" type="line"/>
      <point x="568.816" y="-0.0434222"/>
      <point x="529.051" y="115.614"/>
      <point x="529.051" y="204.371" type="curve" smooth="yes"/>
      <point x="529.051" y="286.912"/>
      <point x="568.088" y="408.987"/>
    </contour>
    <contour>
      <point x="671.266" y="291.494" type="line"/>
      <point x="657.755" y="291.494"/>
      <point x="649.866" y="244.085"/>
      <point x="649.866" y="209.738" type="curve" smooth="yes"/>
      <point x="649.866" y="165.397"/>
      <point x="656.841" y="117.163"/>
      <point x="671.016" y="116.001" type="curve"/>
      <point x="671.016" y="116.001" type="line"/>
      <point x="685.214" y="116.001"/>
      <point x="693.534" y="163.44"/>
      <point x="693.566" y="197.765" type="curve" smooth="yes"/>
      <point x="693.608" y="241.938"/>
      <point x="686.022" y="290.332"/>
      <point x="671.266" y="291.494" type="curve"/>
    </contour>
    <contour>
      <point x="984.505" y="408.987" type="curve"/>
      <point x="984.505" y="408.987" type="line"/>
      <point x="1084.75" y="409"/>
      <point x="1127.96" y="293.904"/>
      <point x="1127.96" y="205.147" type="curve" smooth="yes"/>
      <point x="1127.96" y="123.071"/>
      <point x="1088.92" y="-0.0374222"/>
      <point x="984.505" y="-0.0374222" type="curve"/>
      <point x="984.505" y="-0.0374222" type="line"/>
      <point x="880.816" y="-0.0434222"/>
      <point x="841.051" y="115.614"/>
      <point x="841.051" y="204.371" type="curve" smooth="yes"/>
      <point x="841.051" y="286.912"/>
      <point x="880.088" y="408.987"/>
    </contour>
    <contour>
      <point x="983.266" y="291.494" type="line"/>
      <point x="969.755" y="291.494"/>
      <point x="961.866" y="244.085"/>
      <point x="961.866" y="209.738" type="curve" smooth="yes"/>
      <point x="961.866" y="165.397"/>
      <point x="968.841" y="117.163"/>
      <point x="983.016" y="116.001" type="curve"/>
      <point x="983.016" y="116.001" type="line"/>
      <point x="997.214" y="116.001"/>
      <point x="1005.53" y="163.44"/>
      <point x="1005.57" y="197.765" type="curve" smooth="yes"/>
      <point x="1005.61" y="241.938"/>
      <point x="998.022" y="290.332"/>
      <point x="983.266" y="291.494" type="curve"/>
    </contour>
  </outline>
</glyph>
<glyph name="guilsinglleft" format="2">
  <advance width="500"/>
  <unicode hex="2039"/>
  <outline>
    <contour>
      <point x="203" y="460" type="line"/>
      <point x="40" y="265.452" type="line"/>
      <point x="203" y="70" type="line"/>
      <point x="440" y="70" type="line"/>
      <point x="237" y="265.453" type="line"/>
      <point x="440" y="460" type="line"/>
    </contour>
  </outline>
</glyph>
<glyph name="fraction" format="2">
  <advance width="653"/>
  <unicode hex="2044"/>
  <outline>
    <contour>
      <point x="80" y="0" type="line"/>
      <point x="419.348" y="700" type="line"/>
      <point x="642.348" y="700" type="line"/>
      <point x="263" y="0" type="line"/>
    </contour>
  </outline>
</glyph>
<glyph name="Euro" format="2">
  <advance width="560"/>
  <unicode hex="20AC"/>
  <outline>
    <contour>
      <point x="37" y="245" type="line"/>
      <point x="37" y="345" type="line"/>
      <point x="367" y="345" type="line"/>
      <point x="367" y="215" type="line"/>
    </contour>
    <contour>
      <point x="37" y="394" type="line"/>
      <point x="37" y="494" type="line"/>
      <point x="367" y="494" type="line"/>
      <point x="367" y="364" type="line"/>
    </contour>
    <contour>
      <point x="539.168" y="79.6592" type="line"/>
      <point x="493.843" y="35.0864"/>
      <point x="429.592" y="-9.99509"/>
      <point x="331.844" y="-10" type="curve" smooth="yes"/>
      <point x="104.935" y="-10.0114"/>
      <point x="72.6594" y="233.283"/>
      <point x="72.2906" y="349.832" type="curve" smooth="yes"/>
      <point x="71.9576" y="455.041"/>
      <point x="105.961" y="710.126"/>
      <point x="335.653" y="710.132" type="curve" smooth="yes"/>
      <point x="433.47" y="710.135"/>
      <point x="495.481" y="664.771"/>
      <point x="525.287" y="620.465" type="curve"/>
      <point x="445.067" y="453" type="line"/>
      <point x="431.316" y="478"/>
      <point x="405.601" y="521.529"/>
      <point x="366.365" y="521.529" type="curve" smooth="yes"/>
      <point x="300.158" y="521.529"/>
      <point x="265.937" y="455.668"/>
      <point x="265.937" y="348.126" type="curve" smooth="yes"/>
      <point x="265.937" y="263"/>
      <point x="291.235" y="176.352"/>
      <point x="370.836" y="175.942" type="curve" smooth="yes"/>
      <point x="414.016" y="175.72"/>
      <point x="440.273" y="185.437"/>
      <point x="488.623" y="224.442" type="curve"/>
    </contour>
  </outline>
</glyph>
